<svg width="129" height="187" viewBox="0 0 129 187" fill="none" xmlns="http://www.w3.org/2000/svg">
<g clip-path="url(#clip0_7_531)">
<path d="M93.4564 180.365V30.6932L45.9122 21.9918V185.808L93.4564 180.365Z" fill="white" stroke="#0C3EAD" stroke-width="1.2" stroke-linecap="round" stroke-linejoin="round"/>
<path d="M107.208 13.5487C107.208 13.5487 127.786 12.2375 127.786 25.965C127.786 40.3283 107.208 38.3615 107.208 38.3615L105.019 24.4552L107.208 13.5487Z" fill="#F76B1C" stroke="#0C3EAD" stroke-width="1.2" stroke-linecap="round" stroke-linejoin="round"/>
<path d="M25.7125 13.5487L1.19409 25.965L25.7125 38.3615C25.7125 38.3615 33.1555 34.5075 33.1555 26.859C33.1555 19.2106 25.7125 13.5487 25.7125 13.5487Z" fill="white" stroke="#0C3EAD" stroke-width="1.2" stroke-linecap="round" stroke-linejoin="round"/>
<path d="M11.1646 20.9191C11.1646 20.9191 14.707 26.1439 11.1646 30.6932L1.21399 25.9651L11.1646 20.9191Z" fill="#0C3EAD" stroke="#0C3EAD" stroke-width="1.2" stroke-linecap="round" stroke-linejoin="round"/>
<path d="M107.208 38.3615H91.8444C93.9429 34.5778 94.9422 30.2847 94.73 25.965C94.788 21.6542 93.7978 17.3937 91.8444 13.5487H107.168C107.168 13.5487 111.348 17.0451 111.348 25.965C111.6 30.4727 110.12 34.9066 107.208 38.3615Z" fill="white" stroke="#0C3EAD" stroke-width="1.2" stroke-linecap="round" stroke-linejoin="round"/>
<path d="M97.8147 38.4013H25.7124C27.8086 34.6095 28.8077 30.3107 28.5981 25.9849C28.6415 21.7074 27.6517 17.4825 25.7124 13.6679H97.8147C97.8147 13.6679 102.014 17.1445 102.014 26.0644C102.232 30.5595 100.731 34.9695 97.8147 38.4013Z" fill="white" stroke="#0C3EAD" stroke-width="1.2" stroke-linecap="round" stroke-linejoin="round"/>
<path d="M28.1603 20.9191H101.337" stroke="#0C3EAD" stroke-width="1.2" stroke-linecap="round" stroke-linejoin="round"/>
<path d="M28.439 29.243H101.337" stroke="#0C3EAD" stroke-width="1.2" stroke-linecap="round" stroke-linejoin="round"/>
<path d="M47.3451 18.555V5.92013C47.3451 4.673 47.8387 3.47636 48.7183 2.5908C49.598 1.70523 50.7926 1.20247 52.0418 1.19199C53.2946 1.19724 54.4942 1.6977 55.3782 2.58383C56.2622 3.46996 56.7585 4.66958 56.7584 5.92013V18.555C56.7611 19.175 56.641 19.7893 56.4051 20.3629C56.1693 20.9364 55.8223 21.4578 55.384 21.8971C54.9458 22.3364 54.425 22.685 53.8514 22.9228C53.2779 23.1607 52.6629 23.2831 52.0418 23.2831C51.4191 23.2858 50.802 23.1653 50.2262 22.9286C49.6503 22.6919 49.1271 22.3437 48.6868 21.9042C48.2464 21.4646 47.8976 20.9423 47.6605 20.3675C47.4234 19.7926 47.3027 19.1766 47.3053 18.555H47.3451Z" fill="white" stroke="#0C3EAD" stroke-width="1.2" stroke-linecap="round" stroke-linejoin="round"/>
<path d="M56.7983 18.555V5.92012C56.7939 4.74694 57.2265 3.61402 58.0122 2.74153C58.4542 2.25203 58.9946 1.86103 59.5981 1.59403C60.2016 1.32704 60.8547 1.19004 61.5149 1.19197C62.3081 1.1846 63.0902 1.37965 63.7867 1.75862C64.4833 2.13758 65.0714 2.6879 65.4951 3.35738C66.0066 4.11404 66.2771 5.00732 66.2713 5.92012V18.555C66.266 19.8074 65.7653 21.0069 64.8782 21.8925C63.9911 22.7781 62.7893 23.2779 61.5348 23.2831C60.912 23.2858 60.2949 23.1653 59.7191 22.9286C59.1432 22.6919 58.62 22.3437 58.1797 21.9041C57.7393 21.4646 57.3905 20.9423 57.1534 20.3675C56.9163 19.7926 56.7956 19.1766 56.7983 18.555Z" fill="white" stroke="#0C3EAD" stroke-width="1.2" stroke-linecap="round" stroke-linejoin="round"/>
<path d="M66.2713 18.555V5.92013C66.2687 5.30016 66.3887 4.68578 66.6246 4.11225C66.8604 3.53872 67.2075 3.01734 67.6457 2.57803C68.0839 2.13871 68.6048 1.79013 69.1783 1.55228C69.7519 1.31442 70.3668 1.19198 70.9879 1.19199C72.2441 1.19199 73.4488 1.69013 74.3371 2.57683C75.2254 3.46353 75.7244 4.66615 75.7244 5.92013V18.555C75.724 19.3477 75.5232 20.1275 75.1405 20.822C74.7578 21.5166 74.2057 22.1035 73.5352 22.5282C72.7713 23.0054 71.889 23.26 70.9879 23.2633C69.7374 23.257 68.5384 22.7654 67.6445 21.8925C66.7628 21.0049 66.2691 19.805 66.2713 18.555Z" fill="white" stroke="#0C3EAD" stroke-width="1.2" stroke-linecap="round" stroke-linejoin="round"/>
<path d="M75.7243 18.555V5.92013C75.7217 5.30016 75.8417 4.68578 76.0776 4.11225C76.3134 3.53872 76.6605 3.01734 77.0987 2.57803C77.5369 2.13871 78.0578 1.79013 78.6313 1.55228C79.2049 1.31442 79.8198 1.19198 80.4409 1.19199C81.6971 1.19199 82.9018 1.69013 83.7901 2.57683C84.6784 3.46353 85.1774 4.66615 85.1774 5.92013V18.555C85.1771 19.3477 84.9762 20.1275 84.5935 20.822C84.2109 21.5166 83.6587 22.1035 82.9883 22.5282C82.2243 23.0054 81.342 23.26 80.4409 23.2633C79.1904 23.257 77.9914 22.7654 77.0975 21.8925C76.2158 21.0049 75.7221 19.805 75.7243 18.555Z" fill="white" stroke="#0C3EAD" stroke-width="1.2" stroke-linecap="round" stroke-linejoin="round"/>
<path d="M93.4563 57.5125V36.1365C93.4563 34.6929 92.8818 33.3083 91.8592 32.2875C90.8366 31.2667 89.4496 30.6932 88.0034 30.6932C87.2875 30.6905 86.5782 30.8297 85.9165 31.1025C85.2548 31.3754 84.654 31.7766 84.1487 32.2828C83.6434 32.7891 83.2437 33.3903 82.9728 34.0518C82.7019 34.7133 82.5651 35.4219 82.5703 36.1365V57.5125" fill="white"/>
<path d="M93.4563 57.5125V36.1365C93.4563 34.6929 92.8818 33.3083 91.8592 32.2875C90.8366 31.2667 89.4496 30.6932 88.0034 30.6932C87.2875 30.6905 86.5782 30.8297 85.9165 31.1025C85.2548 31.3754 84.654 31.7766 84.1487 32.2828C83.6434 32.7891 83.2437 33.3903 82.9728 34.0518C82.7019 34.7133 82.5651 35.4219 82.5703 36.1365V57.5125" stroke="#0C3EAD" stroke-width="1.2" stroke-linecap="round" stroke-linejoin="round"/>
<ellipse cx="66.5" cy="136" rx="62.5" ry="28" fill="#F76B1C"/>
</g>
<defs>
<clipPath id="clip0_7_531">
<rect width="129" height="187" fill="white"/>
</clipPath>
</defs>
</svg>
