<svg width="146" height="206" viewBox="0 0 146 206" fill="none" xmlns="http://www.w3.org/2000/svg">
<g clip-path="url(#clip0_7_513)">
<path d="M163.813 -19.823V130.065C163.813 147.13 157.089 163.495 145.12 175.562C133.152 187.628 116.919 194.407 99.9923 194.407H79.6787C79.6787 194.407 61.9723 206.177 47.457 204.784C32.9416 203.391 32.0077 192.641 31.5407 181.813C25.9023 181.029 20.188 180.97 14.5348 181.637C3.96934 182.539 1.63444 181.205 1.16746 174.908C0.66156 167.787 14.5348 164.472 32.8833 164.472C32.8833 164.472 29.2252 151.682 44.2465 152.016C44.2465 152.016 43.9157 140.913 56.2712 140.913C68.6268 140.913 86.3137 146.641 86.3137 146.641H95.2642C100.858 146.641 106.223 144.401 110.178 140.413C114.134 136.425 116.356 131.017 116.356 125.377V-19.7838L163.813 -19.823Z" fill="white" stroke="#3F4DA1" stroke-width="1.2" stroke-linecap="round" stroke-linejoin="round"/>
<path d="M44.188 151.937C54.4092 152.603 64.5639 154.066 74.5612 156.312" stroke="#3F4DA1" stroke-width="1.2" stroke-linecap="round" stroke-linejoin="round"/>
<path d="M32.8833 164.394C32.8833 164.394 53.5861 164.394 66.2724 167.63" stroke="#3F4DA1" stroke-width="1.2" stroke-linecap="round" stroke-linejoin="round"/>
<path d="M31.5408 181.735C36.4412 182.264 41.2656 183.357 45.9199 184.991C47.8635 187.019 49.1407 189.601 49.5779 192.386" stroke="#3F4DA1" stroke-width="1.2" stroke-linecap="round" stroke-linejoin="round"/>
<path d="M94.7778 146.229C94.7778 147.358 95.1099 148.462 95.7321 149.4C96.3542 150.339 97.2386 151.071 98.2732 151.503C99.3078 151.935 100.446 152.048 101.545 151.828C102.643 151.608 103.652 151.064 104.444 150.266C105.236 149.467 105.775 148.45 105.993 147.343C106.212 146.235 106.1 145.088 105.671 144.045C105.243 143.002 104.517 142.11 103.586 141.483C102.655 140.856 101.56 140.521 100.44 140.521C98.9383 140.521 97.4981 141.122 96.4362 142.193C95.3744 143.263 94.7778 144.715 94.7778 146.229Z" fill="#F76B1C" stroke="#3F4DA1" stroke-width="1.2" stroke-linecap="round" stroke-linejoin="round"/>
<path d="M94.7778 157.646C94.7778 158.775 95.1099 159.878 95.7321 160.817C96.3542 161.756 97.2386 162.488 98.2732 162.92C99.3078 163.352 100.446 163.465 101.545 163.244C102.643 163.024 103.652 162.481 104.444 161.682C105.236 160.884 105.775 159.867 105.993 158.759C106.212 157.652 106.1 156.504 105.671 155.461C105.243 154.418 104.517 153.527 103.586 152.899C102.655 152.272 101.56 151.937 100.44 151.937C98.9383 151.937 97.4981 152.539 96.4362 153.609C95.3744 154.68 94.7778 156.132 94.7778 157.646Z" fill="#F76B1C" stroke="#3F4DA1" stroke-width="1.2" stroke-linecap="round" stroke-linejoin="round"/>
<path d="M94.7776 169.062C94.7661 170.193 95.0878 171.302 95.7021 172.248C96.3163 173.194 97.1954 173.935 98.2278 174.376C99.2602 174.818 100.399 174.94 101.501 174.728C102.603 174.516 103.617 173.979 104.416 173.185C105.214 172.391 105.761 171.376 105.986 170.269C106.211 169.161 106.106 168.011 105.682 166.964C105.258 165.917 104.535 165.021 103.606 164.389C102.676 163.757 101.581 163.417 100.459 163.413C98.9642 163.408 97.5278 163.999 96.4634 165.057C95.3991 166.116 94.793 167.555 94.7776 169.062Z" fill="#F76B1C" stroke="#3F4DA1" stroke-width="1.2" stroke-linecap="round" stroke-linejoin="round"/>
<path d="M94.7778 180.479C94.7778 181.608 95.1099 182.712 95.7321 183.651C96.3542 184.589 97.2386 185.321 98.2732 185.753C99.3078 186.185 100.446 186.298 101.545 186.078C102.643 185.858 103.652 185.314 104.444 184.516C105.236 183.717 105.775 182.7 105.993 181.593C106.212 180.485 106.1 179.338 105.671 178.295C105.243 177.252 104.517 176.36 103.586 175.733C102.655 175.106 101.56 174.771 100.44 174.771C98.9383 174.771 97.4981 175.372 96.4362 176.443C95.3744 177.513 94.7778 178.965 94.7778 180.479Z" fill="#F76B1C" stroke="#3F4DA1" stroke-width="1.2" stroke-linecap="round" stroke-linejoin="round"/>
<path d="M94.7778 191.896C94.7778 193.025 95.1099 194.129 95.7321 195.067C96.3542 196.006 97.2386 196.738 98.2732 197.17C99.3078 197.602 100.446 197.715 101.545 197.495C102.643 197.274 103.652 196.731 104.444 195.932C105.236 195.134 105.775 194.117 105.993 193.01C106.212 191.902 106.1 190.754 105.671 189.711C105.243 188.668 104.517 187.777 103.586 187.15C102.655 186.522 101.56 186.188 100.44 186.188C98.9383 186.188 97.4981 186.789 96.4362 187.859C95.3744 188.93 94.7778 190.382 94.7778 191.896Z" fill="#F76B1C" stroke="#3F4DA1" stroke-width="1.2" stroke-linecap="round" stroke-linejoin="round"/>
</g>
<defs>
<clipPath id="clip0_7_513">
<rect width="165" height="227" fill="white" transform="translate(0 -21)"/>
</clipPath>
</defs>
</svg>
