<svg width="370" height="328" viewBox="0 0 370 328" fill="none" xmlns="http://www.w3.org/2000/svg">
<g clip-path="url(#clip0_20_8)">
<path d="M93.4564 321.365V171.693L45.9122 162.992V326.808L93.4564 321.365Z" fill="white" stroke="#0C3EAD" stroke-width="1.2" stroke-linecap="round" stroke-linejoin="round"/>
<path d="M107.208 154.549C107.208 154.549 127.786 153.238 127.786 166.965C127.786 181.328 107.208 179.362 107.208 179.362L105.019 165.455L107.208 154.549Z" fill="#F76B1C" stroke="#0C3EAD" stroke-width="1.2" stroke-linecap="round" stroke-linejoin="round"/>
<path d="M25.7125 154.549L1.19409 166.965L25.7125 179.362C25.7125 179.362 33.1555 175.507 33.1555 167.859C33.1555 160.211 25.7125 154.549 25.7125 154.549Z" fill="white" stroke="#0C3EAD" stroke-width="1.2" stroke-linecap="round" stroke-linejoin="round"/>
<path d="M11.1646 161.919C11.1646 161.919 14.707 167.144 11.1646 171.693L1.21399 166.965L11.1646 161.919Z" fill="#0C3EAD" stroke="#0C3EAD" stroke-width="1.2" stroke-linecap="round" stroke-linejoin="round"/>
<path d="M107.208 179.362H91.8444C93.9429 175.578 94.9422 171.285 94.73 166.965C94.788 162.654 93.7978 158.394 91.8444 154.549H107.168C107.168 154.549 111.348 158.045 111.348 166.965C111.6 171.473 110.12 175.907 107.208 179.362Z" fill="white" stroke="#0C3EAD" stroke-width="1.2" stroke-linecap="round" stroke-linejoin="round"/>
<path d="M97.8147 179.401H25.7124C27.8086 175.609 28.8077 171.311 28.5981 166.985C28.6415 162.707 27.6517 158.483 25.7124 154.668H97.8147C97.8147 154.668 102.014 158.144 102.014 167.064C102.232 171.559 100.731 175.97 97.8147 179.401Z" fill="white" stroke="#0C3EAD" stroke-width="1.2" stroke-linecap="round" stroke-linejoin="round"/>
<path d="M28.1603 161.919H101.337" stroke="#0C3EAD" stroke-width="1.2" stroke-linecap="round" stroke-linejoin="round"/>
<path d="M28.439 170.243H101.337" stroke="#0C3EAD" stroke-width="1.2" stroke-linecap="round" stroke-linejoin="round"/>
<path d="M47.3451 159.555V146.92C47.3451 145.673 47.8387 144.476 48.7183 143.591C49.598 142.705 50.7926 142.202 52.0418 142.192C53.2946 142.197 54.4942 142.698 55.3782 143.584C56.2622 144.47 56.7585 145.67 56.7584 146.92V159.555C56.7611 160.175 56.641 160.789 56.4051 161.363C56.1693 161.936 55.8223 162.458 55.384 162.897C54.9458 163.336 54.425 163.685 53.8514 163.923C53.2779 164.161 52.6629 164.283 52.0418 164.283C51.4191 164.286 50.802 164.165 50.2262 163.929C49.6503 163.692 49.1271 163.344 48.6868 162.904C48.2464 162.465 47.8976 161.942 47.6605 161.367C47.4234 160.793 47.3027 160.177 47.3053 159.555H47.3451Z" fill="white" stroke="#0C3EAD" stroke-width="1.2" stroke-linecap="round" stroke-linejoin="round"/>
<path d="M56.7983 159.555V146.92C56.7939 145.747 57.2265 144.614 58.0122 143.742C58.4542 143.252 58.9946 142.861 59.5981 142.594C60.2016 142.327 60.8547 142.19 61.5149 142.192C62.3081 142.185 63.0902 142.38 63.7867 142.759C64.4833 143.138 65.0714 143.688 65.4951 144.357C66.0066 145.114 66.2771 146.007 66.2713 146.92V159.555C66.266 160.807 65.7653 162.007 64.8782 162.893C63.9911 163.778 62.7893 164.278 61.5348 164.283C60.912 164.286 60.2949 164.165 59.7191 163.929C59.1432 163.692 58.62 163.344 58.1797 162.904C57.7393 162.465 57.3905 161.942 57.1534 161.367C56.9163 160.793 56.7956 160.177 56.7983 159.555Z" fill="white" stroke="#0C3EAD" stroke-width="1.2" stroke-linecap="round" stroke-linejoin="round"/>
<path d="M66.2713 159.555V146.92C66.2687 146.3 66.3887 145.686 66.6246 145.112C66.8604 144.539 67.2075 144.017 67.6457 143.578C68.0839 143.139 68.6048 142.79 69.1783 142.552C69.7519 142.314 70.3668 142.192 70.9879 142.192C72.2441 142.192 73.4488 142.69 74.3371 143.577C75.2254 144.464 75.7244 145.666 75.7244 146.92V159.555C75.724 160.348 75.5232 161.127 75.1405 161.822C74.7578 162.517 74.2057 163.103 73.5352 163.528C72.7713 164.005 71.889 164.26 70.9879 164.263C69.7374 164.257 68.5384 163.765 67.6445 162.893C66.7628 162.005 66.2691 160.805 66.2713 159.555Z" fill="white" stroke="#0C3EAD" stroke-width="1.2" stroke-linecap="round" stroke-linejoin="round"/>
<path d="M75.7243 159.555V146.92C75.7217 146.3 75.8417 145.686 76.0776 145.112C76.3134 144.539 76.6605 144.017 77.0987 143.578C77.5369 143.139 78.0578 142.79 78.6313 142.552C79.2049 142.314 79.8198 142.192 80.4409 142.192C81.6971 142.192 82.9018 142.69 83.7901 143.577C84.6784 144.464 85.1774 145.666 85.1774 146.92V159.555C85.1771 160.348 84.9762 161.127 84.5935 161.822C84.2109 162.517 83.6587 163.103 82.9883 163.528C82.2243 164.005 81.342 164.26 80.4409 164.263C79.1904 164.257 77.9914 163.765 77.0975 162.893C76.2158 162.005 75.7221 160.805 75.7243 159.555Z" fill="white" stroke="#0C3EAD" stroke-width="1.2" stroke-linecap="round" stroke-linejoin="round"/>
<path d="M93.4563 198.512V177.137C93.4563 175.693 92.8818 174.308 91.8592 173.287C90.8366 172.267 89.4496 171.693 88.0034 171.693C87.2875 171.691 86.5782 171.83 85.9165 172.103C85.2548 172.375 84.654 172.777 84.1487 173.283C83.6434 173.789 83.2437 174.39 82.9728 175.052C82.7019 175.713 82.5651 176.422 82.5703 177.137V198.512" fill="white"/>
<path d="M93.4563 198.512V177.137C93.4563 175.693 92.8818 174.308 91.8592 173.287C90.8366 172.267 89.4496 171.693 88.0034 171.693C87.2875 171.691 86.5782 171.83 85.9165 172.103C85.2548 172.375 84.654 172.777 84.1487 173.283C83.6434 173.789 83.2437 174.39 82.9728 175.052C82.7019 175.713 82.5651 176.422 82.5703 177.137V198.512" stroke="#0C3EAD" stroke-width="1.2" stroke-linecap="round" stroke-linejoin="round"/>
<ellipse cx="66.5" cy="277" rx="62.5" ry="28" fill="#F76B1C"/>
</g>
<g clip-path="url(#clip1_20_8)">
<path d="M215.79 44.5828H298.188" stroke="#3F4DA1" stroke-width="1.2" stroke-linecap="round" stroke-linejoin="round"/>
<path d="M221.742 8.62357C221.742 8.62357 222.09 44.395 257.175 44.395C292.259 44.395 292.189 8.62357 292.189 8.62357" stroke="#3F4DA1" stroke-width="1.2" stroke-linecap="round" stroke-linejoin="round"/>
<path d="M262.941 38.574H251.037V50.5917H262.941V38.574Z" fill="white" stroke="#3F4DA1" stroke-width="1.2" stroke-linecap="round" stroke-linejoin="round"/>
<path d="M227.694 0.408325H215.79V12.426H227.694V0.408325Z" fill="white" stroke="#3F4DA1" stroke-width="1.2" stroke-linecap="round" stroke-linejoin="round"/>
<path d="M298.188 0.408325H286.284V12.426H298.188V0.408325Z" fill="white" stroke="#3F4DA1" stroke-width="1.2" stroke-linecap="round" stroke-linejoin="round"/>
<path d="M216.766 48.9017C219.18 48.9017 221.137 46.926 221.137 44.4889C221.137 42.0518 219.18 40.0762 216.766 40.0762C214.352 40.0762 212.395 42.0518 212.395 44.4889C212.395 46.926 214.352 48.9017 216.766 48.9017Z" fill="#F76B1C" stroke="#3F4DA1" stroke-width="1.2" stroke-linecap="round" stroke-linejoin="round"/>
<path d="M300.234 48.9017C302.648 48.9017 304.605 46.926 304.605 44.4889C304.605 42.0518 302.648 40.0762 300.234 40.0762C297.82 40.0762 295.863 42.0518 295.863 44.4889C295.863 46.926 297.82 48.9017 300.234 48.9017Z" fill="#F76B1C" stroke="#3F4DA1" stroke-width="1.2" stroke-linecap="round" stroke-linejoin="round"/>
</g>
<circle cx="301.226" cy="131.226" r="5.22555" fill="#F76B1C"/>
<circle cx="301.226" cy="152.128" r="5.22555" fill="#F76B1C"/>
<circle cx="301.226" cy="173.03" r="5.22555" fill="#F76B1C"/>
<circle cx="332.579" cy="131.226" r="5.22555" fill="#F76B1C"/>
<circle cx="332.579" cy="152.128" r="5.22555" fill="#F76B1C"/>
<circle cx="332.579" cy="173.03" r="5.22555" fill="#F76B1C"/>
<circle cx="363.932" cy="131.226" r="5.22555" fill="#F76B1C"/>
<circle cx="363.932" cy="152.128" r="5.22555" fill="#F76B1C"/>
<circle cx="363.932" cy="173.03" r="5.22555" fill="#F76B1C"/>
<defs>
<clipPath id="clip0_20_8">
<rect width="129" height="187" fill="white" transform="translate(0 141)"/>
</clipPath>
<clipPath id="clip1_20_8">
<rect width="95" height="53" fill="white" transform="translate(211 -1)"/>
</clipPath>
</defs>
</svg>
