<svg width="987" height="220" viewBox="0 0 987 220" fill="none" xmlns="http://www.w3.org/2000/svg">
<circle cx="534.226" cy="78.2256" r="5.22555" fill="#F76B1C"/>
<circle cx="534.226" cy="99.1278" r="5.22555" fill="#F76B1C"/>
<circle cx="534.226" cy="120.03" r="5.22555" fill="#F76B1C"/>
<circle cx="565.579" cy="78.2256" r="5.22555" fill="#F76B1C"/>
<circle cx="565.579" cy="99.1278" r="5.22555" fill="#F76B1C"/>
<circle cx="565.579" cy="120.03" r="5.22555" fill="#F76B1C"/>
<circle cx="596.932" cy="78.2256" r="5.22555" fill="#F76B1C"/>
<circle cx="596.932" cy="99.1278" r="5.22555" fill="#F76B1C"/>
<circle cx="596.932" cy="120.03" r="5.22555" fill="#F76B1C"/>
<path d="M101.1 156.7C101.1 170.5 99.6 182.1 96.6 191.5C93.6 200.9 88.1 208 80.1 212.8C72.1 217.6 60.6 220 45.6 220C38.7 220 31.6 219.4 24.3 218.2C17 217.1 11.65 216.1 8.25 215.2L9.15 175.15C12.05 175.75 15.35 176.55 19.05 177.55C22.85 178.55 27.05 179.05 31.65 179.05C41.75 179.05 48.55 176.4 52.05 171.1C55.55 165.7 57.3 157 57.3 145V0.0999851H101.1V156.7ZM206.053 220C190.853 220 177.603 216.75 166.303 210.25C155.103 203.75 146.403 194.55 140.203 182.65C134.103 170.75 131.053 156.65 131.053 140.35C131.053 124.05 134.103 109.8 140.203 97.6C146.403 85.4 155.103 75.9 166.303 69.1C177.603 62.3 190.903 58.9 206.203 58.9C221.503 58.9 234.753 62.25 245.953 68.95C257.153 75.55 265.803 84.95 271.903 97.15C278.003 109.35 281.053 123.75 281.053 140.35C281.053 155.95 278.053 169.75 272.053 181.75C266.153 193.65 257.603 203 246.403 209.8C235.303 216.6 221.853 220 206.053 220ZM206.203 187.45C213.903 187.45 220.103 185.2 224.803 180.7C229.503 176.2 232.903 170.3 235.003 163C237.203 155.6 238.303 147.55 238.303 138.85C238.303 130.65 237.303 122.9 235.303 115.6C233.403 108.3 230.103 102.4 225.403 97.9C220.703 93.4 214.303 91.15 206.203 91.15C198.503 91.15 192.253 93.3 187.453 97.6C182.753 101.8 179.303 107.55 177.103 114.85C174.903 122.05 173.803 130.05 173.803 138.85C173.803 146.95 174.803 154.75 176.803 162.25C178.803 169.65 182.153 175.7 186.853 180.4C191.553 185.1 198.003 187.45 206.203 187.45ZM354.354 61.9V217H312.504V61.9H354.354ZM354.804 0.249992V39.7H312.204V0.249992H354.804ZM394.922 217V61.9H437.972V83.8C440.372 80 443.472 76.35 447.272 72.85C451.172 69.25 456.072 66.3 461.972 64C467.872 61.7 474.872 60.55 482.972 60.55C492.472 60.55 501.322 62.4 509.522 66.1C517.822 69.8 524.522 75.65 529.622 83.65C534.722 91.55 537.272 101.9 537.272 114.7V217H493.472V120.1C493.472 111.7 490.972 105.4 485.972 101.2C480.972 97 474.872 94.9 467.672 94.9C462.872 94.9 458.222 95.75 453.722 97.45C449.322 99.15 445.722 101.7 442.922 105.1C440.122 108.5 438.722 112.7 438.722 117.7V217H394.922ZM815.428 134.35C815.428 151.85 812.578 167.05 806.878 179.95C801.178 192.75 791.928 202.65 779.128 209.65C766.428 216.55 749.578 220 728.578 220C707.478 220 690.578 216.5 677.878 209.5C665.178 202.4 655.978 192.35 650.278 179.35C644.678 166.35 641.878 150.85 641.878 132.85V0.0999851H686.428V136.15C686.428 152.35 690.328 164.2 698.128 171.7C705.928 179.1 716.078 182.8 728.578 182.8C736.878 182.8 744.228 181.2 750.628 178C757.028 174.7 762.028 169.65 765.628 162.85C769.328 155.95 771.178 147.05 771.178 136.15V0.0999851H815.428V134.35ZM914.768 220C903.968 220 893.568 218.25 883.568 214.75C873.568 211.15 865.118 205.55 858.218 197.95C851.318 190.25 846.918 180.3 845.018 168.1H882.968C884.268 173.6 886.618 177.95 890.018 181.15C893.518 184.35 897.468 186.65 901.868 188.05C906.268 189.35 910.468 190 914.468 190C922.868 190 929.618 188.7 934.718 186.1C939.918 183.4 942.518 179.3 942.518 173.8C942.518 169.6 940.968 166.25 937.868 163.75C934.868 161.25 929.868 159.35 922.868 158.05L895.568 152.35C881.868 149.45 870.868 144.55 862.568 137.65C854.268 130.65 850.018 120.75 849.818 107.95C849.818 98.65 852.268 90.3 857.168 82.9C862.168 75.5 869.518 69.65 879.218 65.35C888.918 61.05 900.818 58.9 914.918 58.9C934.018 58.9 949.268 63.1 960.668 71.5C972.168 79.9 978.018 91.75 978.218 107.05H941.618C940.518 101.05 937.518 96.45 932.618 93.25C927.818 89.95 921.768 88.3 914.468 88.3C906.868 88.3 900.618 89.65 895.718 92.35C890.818 95.05 888.368 99.15 888.368 104.65C888.368 108.75 890.368 112 894.368 114.4C898.368 116.7 904.568 118.7 912.968 120.4L938.168 126.1C946.868 128.2 953.918 131.1 959.318 134.8C964.818 138.4 969.068 142.35 972.068 146.65C975.068 150.95 977.118 155.3 978.218 159.7C979.418 164 980.018 167.9 980.018 171.4C980.018 181.7 977.268 190.5 971.768 197.8C966.268 205 958.618 210.5 948.818 214.3C939.018 218.1 927.668 220 914.768 220Z" fill="#F76B1C" fill-opacity="0.1"/>
</svg>
