<svg width="510" height="377" viewBox="0 0 510 377" fill="none" xmlns="http://www.w3.org/2000/svg">
<path d="M101.376 220.274C101.376 125.037 178.581 47.8312 273.819 47.8312C369.057 47.8312 446.262 125.037 446.262 220.274V375.996H101.376V220.274Z" fill="#F76B1C"/>
<g clip-path="url(#clip0_5_270)">
<mask id="mask0_5_270" style="mask-type:luminance" maskUnits="userSpaceOnUse" x="226" y="0" width="284" height="377">
<path d="M509.69 0.801208H226.779V376.09H509.69V0.801208Z" fill="white"/>
</mask>
<g mask="url(#mask0_5_270)">
<path d="M427.199 99.4388C424.263 98.1115 420.929 97.0664 418.839 94.9761C417.805 93.9223 417.048 92.6301 416.633 91.2137L416.32 70.7923C415.975 47.7998 396.755 29.3014 373.042 28.737C374.744 25.8245 375.598 22.4942 375.508 19.122C375.447 16.7259 374.915 14.3653 373.941 12.1753C372.967 9.98522 371.571 8.00862 369.832 6.35852C368.094 4.70843 366.047 3.41719 363.809 2.55867C361.571 1.70014 359.186 1.29117 356.79 1.35513C354.395 1.41745 352.035 1.95105 349.845 2.92547C347.656 3.89988 345.68 5.29603 344.03 7.03418C342.38 8.77232 341.089 10.8184 340.23 13.0557C339.371 15.2929 338.961 17.6774 339.023 20.0731C339.102 23.0212 339.897 25.906 341.339 28.4787C342.781 31.0514 344.827 33.2347 347.301 34.8405C332.889 42.8774 323.294 57.9479 323.556 75.119L323.838 93.5548C323.564 93.9308 323.256 94.2807 322.918 94.5999C320.765 96.7946 317.473 97.7979 314.557 99.1461C301.326 105.176 294.47 119.944 299.142 132.402C299.508 133.694 300.305 134.822 301.399 135.6C302.152 136.07 440.127 136.049 440.483 135.819C441.577 135.034 442.37 133.898 442.73 132.6C447.328 120.132 440.43 105.427 427.21 99.4283" fill="#3F4DA1"/>
<path d="M337.038 85.3716H337.55L337.884 107.319C337.906 108.574 337.996 109.826 338.156 111.071H337.435C335.718 111.138 334.005 110.862 332.396 110.258C330.788 109.654 329.317 108.734 328.069 107.553C326.821 106.371 325.822 104.953 325.131 103.38C324.439 101.807 324.07 100.111 324.043 98.3933C324.017 96.6752 324.334 94.9693 324.976 93.3757C325.619 91.7822 326.574 90.3332 327.784 89.1141C328.995 87.895 330.438 86.9303 332.027 86.2768C333.616 85.6233 335.32 85.2942 337.038 85.3089" fill="white"/>
<path d="M337.215 111.771C335.41 111.832 333.61 111.531 331.923 110.885C330.236 110.239 328.695 109.262 327.392 108.011C326.089 106.76 325.049 105.26 324.335 103.601C323.621 101.941 323.247 100.156 323.234 98.3492C323.221 96.5426 323.571 94.7519 324.262 93.0826C324.953 91.4134 325.971 89.8995 327.257 88.6304C328.543 87.3613 330.07 86.3626 331.748 85.6934C333.426 85.0242 335.221 84.698 337.027 84.734H337.539C337.709 84.734 337.873 84.8009 337.994 84.9201C338.115 85.0394 338.185 85.2015 338.187 85.3716L338.532 107.319C338.549 108.553 338.636 109.784 338.793 111.008C338.804 111.098 338.795 111.189 338.768 111.276C338.741 111.362 338.696 111.442 338.637 111.51C338.577 111.576 338.504 111.629 338.424 111.667C338.343 111.705 338.255 111.726 338.166 111.729H337.215M336.923 85.9777C335.288 85.9537 333.666 86.2573 332.15 86.8707C330.635 87.4841 329.258 88.3948 328.101 89.549C326.944 90.7033 326.029 92.0777 325.411 93.5912C324.794 95.1047 324.486 96.7265 324.505 98.361C324.525 99.9955 324.872 101.61 325.525 103.108C326.179 104.606 327.126 105.958 328.311 107.084C329.495 108.211 330.894 109.088 332.423 109.665C333.953 110.242 335.582 110.507 337.215 110.444H337.435C337.32 109.399 337.257 108.354 337.247 107.308L336.923 85.9777Z" fill="#3F4DA1"/>
<path d="M403.538 85.6955H403.998C407.186 85.647 410.262 86.8668 412.55 89.0864C414.838 91.3061 416.151 94.3438 416.2 97.5314C416.248 100.719 415.028 103.795 412.809 106.084C410.589 108.372 407.551 109.685 404.364 109.733H403.716C403.824 108.569 403.87 107.401 403.852 106.232L403.538 85.6955Z" fill="white"/>
<path d="M403.716 110.318C403.539 110.317 403.37 110.246 403.245 110.12C403.184 110.055 403.137 109.977 403.108 109.893C403.079 109.808 403.069 109.718 403.078 109.629C403.181 108.486 403.223 107.338 403.204 106.19L402.901 85.706C402.897 85.6229 402.911 85.5399 402.942 85.4625C402.972 85.3851 403.019 85.315 403.078 85.2566C403.136 85.1945 403.205 85.1448 403.282 85.1106C403.36 85.0765 403.443 85.0586 403.528 85.058H404.207C407.497 85.1249 410.63 86.4724 412.942 88.814C415.254 91.1556 416.561 94.3065 416.585 97.5967C416.61 100.887 415.35 104.057 413.073 106.433C410.797 108.808 407.683 110.202 404.395 110.318H403.737H403.716ZM404.186 86.2808L404.489 106.138C404.489 107.068 404.489 108.019 404.406 109.002C407.309 108.825 410.033 107.542 412.017 105.415C414.001 103.288 415.093 100.481 415.068 97.573C415.042 94.6648 413.901 91.8772 411.88 89.7857C409.859 87.6942 407.113 86.4583 404.207 86.3331" fill="#3F4DA1"/>
<path d="M404.019 105.511L403.705 85.2566L403.622 79.6026C403.622 79.1323 403.622 78.6724 403.622 78.2021C385.196 75.119 371.359 62.7972 368.59 47.5699H368.318C366.447 62.2015 354.47 74.6174 337.686 79.3413C337.686 79.7593 337.686 80.1774 337.686 80.5954L337.769 86.2599L338.072 106.472C338.11 107.644 338.208 108.812 338.365 109.973C339.145 116.283 341.774 122.221 345.921 127.04V182.504H395.846V127.479C400.438 122.327 403.262 115.842 403.904 108.97C404.012 107.82 404.058 106.666 404.04 105.511" fill="white"/>
<path d="M395.846 183.142H345.869C345.785 183.142 345.702 183.125 345.625 183.093C345.548 183.061 345.477 183.014 345.418 182.955C345.359 182.896 345.312 182.825 345.28 182.748C345.248 182.671 345.231 182.588 345.231 182.504V127.28C341.085 122.396 338.458 116.406 337.675 110.047C337.529 108.878 337.449 107.702 337.435 106.525L337.038 80.6163C337.038 80.1878 337.038 79.7593 337.038 79.3308C337.043 79.1947 337.092 79.0638 337.176 78.9569C337.261 78.85 337.377 78.7723 337.508 78.7351C354.042 74.0739 365.851 61.8357 367.68 47.5072C367.692 47.3521 367.758 47.2061 367.867 47.0951C367.976 46.9842 368.121 46.9154 368.276 46.901H368.422C368.594 46.8873 368.765 46.9312 368.909 47.0258C369.053 47.1205 369.161 47.2605 369.217 47.4236C371.944 62.3896 385.792 74.492 403.705 77.5437C403.846 77.5686 403.975 77.6396 404.072 77.7455C404.168 77.8513 404.227 77.9862 404.238 78.1289C404.238 78.6097 404.238 79.08 404.238 79.5607L404.635 105.469C404.651 106.648 404.606 107.827 404.5 109.002C403.866 115.928 401.044 122.473 396.442 127.688V182.473C396.442 182.557 396.425 182.639 396.393 182.717C396.361 182.794 396.314 182.864 396.255 182.924C396.196 182.983 396.126 183.03 396.048 183.062C395.971 183.094 395.888 183.11 395.804 183.11M346.485 181.825H395.156V127.479C395.158 127.321 395.217 127.168 395.324 127.051C400.619 121.143 403.486 113.453 403.35 105.521L402.963 79.613V78.7456C385.803 75.6102 372.331 64.3857 368.537 50.214C365.663 63.8005 354.104 75.2444 338.334 79.8325C338.334 80.0938 338.334 80.3446 338.334 80.5954L338.71 106.472C338.71 107.58 338.814 108.719 338.95 109.869C339.713 116.053 342.291 121.872 346.36 126.591C346.456 126.709 346.507 126.857 346.506 127.009L346.485 181.825Z" fill="#3F4DA1"/>
<path d="M364.493 138.286C371.244 142.466 385.541 150.827 395.501 151.872V128.023C392.3 131.447 388.429 134.177 384.128 136.043C379.828 137.909 375.19 138.871 370.502 138.871C368.486 138.85 366.475 138.654 364.493 138.286Z" fill="#3F4DA1"/>
<path d="M396.118 152.604L395.407 152.53C385.499 151.485 371.558 143.49 364.137 138.819L361.357 137.073L364.587 137.648C366.539 137.997 368.519 138.176 370.502 138.181C375.097 138.198 379.645 137.265 383.863 135.441C388.08 133.618 391.875 130.943 395.01 127.584L396.118 126.413V152.604ZM367.388 139.32C374.839 143.825 386.283 149.991 394.832 151.172V129.59C388.338 135.956 379.596 139.505 370.502 139.467C369.457 139.467 368.412 139.467 367.367 139.32" fill="#3F4DA1"/>
<path d="M409.244 100.923C409.095 100.925 408.951 100.873 408.837 100.777L406.496 98.8953C406.368 98.7947 406.266 98.6659 406.197 98.5189C406.128 98.372 406.095 98.211 406.099 98.0488C406.103 97.8892 406.144 97.7327 406.218 97.5914C406.293 97.4501 406.398 97.3277 406.527 97.2336L409.129 95.3001C409.268 95.21 409.437 95.1765 409.6 95.2066C409.762 95.2367 409.908 95.328 410.005 95.4618C410.103 95.5955 410.146 95.7617 410.125 95.926C410.104 96.0903 410.021 96.2403 409.892 96.3452L407.53 98.1115L409.621 99.815C409.725 99.897 409.802 100.01 409.839 100.137C409.876 100.265 409.873 100.401 409.829 100.527C409.785 100.652 409.704 100.761 409.595 100.837C409.486 100.914 409.356 100.955 409.224 100.954" fill="#3F4DA1"/>
<path d="M331.049 102.114C330.917 102.117 330.787 102.078 330.678 102.003C330.569 101.929 330.486 101.822 330.44 101.698C330.394 101.574 330.387 101.439 330.422 101.311C330.456 101.184 330.529 101.07 330.631 100.986L332.721 99.2193L330.307 97.5471C330.171 97.4484 330.078 97.3005 330.049 97.1347C330.02 96.9689 330.056 96.7982 330.15 96.6588C330.198 96.5893 330.258 96.5298 330.328 96.4838C330.399 96.4377 330.477 96.406 330.56 96.3905C330.642 96.375 330.727 96.3759 330.809 96.3932C330.892 96.4106 330.97 96.444 331.039 96.4915L333.704 98.3414C333.842 98.4299 333.958 98.5498 334.042 98.6914C334.125 98.8331 334.174 98.9925 334.185 99.1566C334.19 99.3175 334.16 99.4777 334.097 99.6258C334.034 99.7739 333.939 99.9063 333.819 100.014L331.53 101.968C331.414 102.068 331.265 102.124 331.112 102.125" fill="#3F4DA1"/>
<path d="M363.448 90.2941C363.456 90.8479 363.3 91.3918 362.999 91.8569C362.698 92.322 362.266 92.6874 361.757 92.907C361.249 93.1266 360.686 93.1904 360.142 93.0905C359.597 92.9905 359.094 92.7312 358.696 92.3454C358.299 91.9596 358.025 91.4646 357.908 90.923C357.792 90.3814 357.839 89.8175 358.044 89.3026C358.248 88.7877 358.6 88.3449 359.056 88.0303C359.512 87.7157 360.051 87.5433 360.605 87.535C361.347 87.5266 362.062 87.8119 362.595 88.3288C363.127 88.8456 363.434 89.5521 363.448 90.2941Z" fill="#3F4DA1"/>
<path d="M393.139 90.0223C393.15 90.5787 392.994 91.1255 392.694 91.5937C392.393 92.0619 391.96 92.4303 391.45 92.6522C390.94 92.8742 390.375 92.9398 389.827 92.8406C389.28 92.7414 388.774 92.482 388.374 92.0952C387.974 91.7084 387.698 91.2116 387.58 90.6677C387.463 90.1238 387.51 89.5572 387.714 89.0398C387.919 88.5224 388.273 88.0774 388.731 87.7611C389.188 87.4449 389.73 87.2716 390.286 87.2632C391.029 87.2548 391.746 87.5398 392.28 88.0564C392.814 88.5729 393.123 89.2794 393.139 90.0223Z" fill="#3F4DA1"/>
<path d="M394.446 80.9925C393.56 81.1156 392.659 81.0479 391.802 80.794C390.871 80.6058 389.941 80.4282 389.126 80.3132C388.311 80.1983 387.36 80.0833 386.419 79.9997C385.528 79.9864 384.65 79.7908 383.838 79.4249C383.179 79.0173 383.023 78.1289 384.005 77.2092C384.831 76.59 385.778 76.1526 386.785 75.9256C387.792 75.6987 388.836 75.6874 389.847 75.8924C390.866 75.9814 391.852 76.29 392.74 76.797C393.628 77.304 394.395 77.9973 394.989 78.8292C395.637 79.9997 395.198 80.8044 394.446 80.9925Z" fill="#3F4DA1"/>
<path d="M355.578 83.8771C356.467 83.7888 357.328 83.5185 358.107 83.0828C358.964 82.6856 359.832 82.2989 360.605 82.0377C361.378 81.7764 362.267 81.4106 363.165 81.118C364.03 80.8937 364.838 80.4914 365.538 79.937C366.092 79.3935 366.04 78.4843 364.869 77.8468C363.924 77.4325 362.901 77.2231 361.869 77.2321C360.837 77.2411 359.819 77.4684 358.881 77.899C357.908 78.2162 357.016 78.7414 356.267 79.438C355.518 80.1347 354.93 80.9861 354.543 81.9332C354.178 83.2082 354.784 83.8875 355.588 83.9084" fill="#3F4DA1"/>
<path d="M373.805 102.292C373.648 102.272 373.505 102.196 373.4 102.077C373.296 101.959 373.239 101.807 373.239 101.649C373.239 101.492 373.296 101.339 373.4 101.221C373.505 101.103 373.648 101.026 373.805 101.006L376.25 100.871C377.865 100.776 379.377 100.046 380.454 98.839C381.532 97.6324 382.087 96.0479 381.998 94.4327C381.995 94.2347 381.95 94.0396 381.868 93.8597C381.785 93.6798 381.666 93.5191 381.518 93.3876C381.228 93.1382 380.855 93.0075 380.473 93.0218C379.84 93.0613 379.207 92.975 378.608 92.7678C378.009 92.5606 377.458 92.2367 376.986 91.8148C376.513 91.3929 376.129 90.8814 375.856 90.31C375.582 89.7386 375.425 89.1186 375.393 88.486L375.059 82.4557C375.083 82.3085 375.158 82.1745 375.271 82.077C375.384 81.9795 375.528 81.9248 375.677 81.9223C375.826 81.9198 375.972 81.9697 376.088 82.0634C376.204 82.157 376.284 82.2885 376.313 82.4348L376.647 88.4755C376.696 89.4165 377.116 90.2997 377.816 90.9307C378.516 91.5618 379.437 91.8892 380.378 91.8408C380.736 91.8174 381.094 91.8665 381.431 91.985C381.769 92.1035 382.079 92.2891 382.343 92.5306C382.612 92.7679 382.831 93.0565 382.987 93.3795C383.144 93.7026 383.234 94.0535 383.252 94.4118C383.361 96.367 382.689 98.2853 381.384 99.7452C380.078 101.205 378.247 102.087 376.292 102.198L373.899 102.292" fill="#3F4DA1"/>
<path d="M357.898 104.016C358.26 103.705 358.715 103.523 359.192 103.498C359.668 103.473 360.14 103.608 360.532 103.88C363.095 105.659 366.161 106.567 369.279 106.472C369.518 106.479 369.752 106.542 369.962 106.656C370.172 106.77 370.353 106.931 370.489 107.127C370.625 107.324 370.713 107.549 370.746 107.786C370.78 108.022 370.757 108.263 370.68 108.489C370.021 110.58 367.942 114.06 362.319 112.356C355.484 110.266 355.965 105.772 357.877 104.069" fill="white"/>
<path d="M365.141 113.401C364.126 113.387 363.119 113.225 362.152 112.921C357.585 111.531 356.414 109.148 356.132 107.841C355.956 107.069 355.987 106.265 356.222 105.509C356.457 104.752 356.887 104.072 357.47 103.536C357.935 103.126 358.525 102.884 359.144 102.848C359.763 102.812 360.377 102.984 360.887 103.337C363.35 105.004 366.275 105.853 369.248 105.762C369.568 105.745 369.887 105.808 370.177 105.945C370.467 106.082 370.719 106.288 370.91 106.546C371.137 106.837 371.291 107.18 371.356 107.544C371.422 107.908 371.398 108.283 371.286 108.636C370.936 110 370.143 111.21 369.03 112.075C367.918 112.939 366.55 113.41 365.141 113.412M359.267 104.131C358.918 104.133 358.581 104.259 358.316 104.487C357.907 104.876 357.605 105.364 357.44 105.904C357.275 106.445 357.253 107.018 357.376 107.57C357.773 109.336 359.602 110.81 362.528 111.687C367.68 113.255 369.467 110.203 370.063 108.249C370.105 108.096 370.112 107.936 370.083 107.78C370.054 107.625 369.99 107.478 369.896 107.35C369.827 107.258 369.737 107.183 369.633 107.132C369.53 107.082 369.416 107.056 369.3 107.058C366.049 107.152 362.852 106.216 360.166 104.382C359.902 104.2 359.588 104.102 359.267 104.1" fill="#3F4DA1"/>
<path d="M411.45 115.095C410.064 115.106 408.73 114.566 407.742 113.594C406.755 112.621 406.193 111.297 406.182 109.911C406.171 108.525 406.711 107.191 407.683 106.203C408.655 105.216 409.98 104.654 411.366 104.643H411.45C412.835 104.634 414.168 105.175 415.155 106.148C416.142 107.121 416.702 108.446 416.712 109.832C416.721 111.218 416.18 112.551 415.207 113.538C414.234 114.525 412.909 115.085 411.523 115.095H411.45ZM411.45 105.887H411.387C410.867 105.891 410.352 105.998 409.873 106.201C409.394 106.403 408.96 106.699 408.595 107.069C408.23 107.44 407.942 107.879 407.747 108.361C407.552 108.843 407.453 109.359 407.457 109.879C407.461 110.4 407.568 110.914 407.771 111.393C407.974 111.872 408.269 112.306 408.64 112.671C409.01 113.036 409.449 113.324 409.931 113.52C410.414 113.715 410.929 113.813 411.45 113.809H411.523C412.573 113.801 413.577 113.375 414.314 112.627C415.051 111.878 415.461 110.867 415.452 109.817C415.444 108.766 415.019 107.762 414.27 107.025C413.521 106.288 412.511 105.879 411.46 105.887" fill="white"/>
<path d="M329.701 115.335C328.328 115.335 327.01 114.795 326.032 113.83C325.054 112.866 324.495 111.556 324.475 110.182C324.462 109.493 324.584 108.807 324.837 108.165C325.089 107.523 325.467 106.937 325.947 106.442C326.427 105.946 327 105.551 327.633 105.278C328.267 105.005 328.949 104.861 329.638 104.852H329.722C331.108 104.843 332.441 105.384 333.428 106.357C334.415 107.33 334.974 108.655 334.984 110.041C334.994 111.427 334.453 112.76 333.479 113.747C332.506 114.734 331.181 115.294 329.795 115.304H329.711M329.711 106.107H329.649C328.866 106.119 328.104 106.363 327.459 106.808C326.815 107.253 326.316 107.879 326.028 108.608C325.739 109.336 325.673 110.133 325.838 110.899C326.002 111.665 326.39 112.365 326.952 112.91C327.32 113.278 327.759 113.567 328.243 113.759C328.726 113.951 329.244 114.043 329.764 114.028C330.814 114.022 331.819 113.598 332.557 112.85C333.295 112.102 333.706 111.092 333.699 110.041C333.692 108.991 333.268 107.986 332.52 107.248C331.772 106.51 330.762 106.1 329.711 106.107Z" fill="white"/>
<path d="M432.624 333.69L424.712 320.365L419.027 310.802L363.228 310.52L306.5 310.802L300.814 320.365L292.892 333.69L284.605 347.642C279.27 356.652 274.889 366.193 271.53 376.111H453.996C450.637 366.198 446.252 356.664 440.911 347.663L432.624 333.69Z" fill="#3F4DA1"/>
<path d="M430.92 331.443H295.829C295.738 331.455 295.645 331.447 295.557 331.42C295.469 331.393 295.388 331.347 295.319 331.286C295.25 331.226 295.194 331.151 295.156 331.067C295.118 330.983 295.099 330.892 295.099 330.8C295.099 330.708 295.118 330.617 295.156 330.533C295.194 330.449 295.25 330.375 295.319 330.314C295.388 330.253 295.469 330.208 295.557 330.181C295.645 330.154 295.738 330.146 295.829 330.157H430.92C431.011 330.146 431.104 330.154 431.192 330.181C431.28 330.208 431.361 330.253 431.43 330.314C431.499 330.375 431.555 330.449 431.593 330.533C431.63 330.617 431.65 330.708 431.65 330.8C431.65 330.892 431.63 330.983 431.593 331.067C431.555 331.151 431.499 331.226 431.43 331.286C431.361 331.347 431.28 331.393 431.192 331.42C431.104 331.447 431.011 331.455 430.92 331.443Z" fill="white"/>
<path d="M358.525 353.808C358.441 353.808 358.357 353.791 358.279 353.759C358.201 353.726 358.13 353.678 358.071 353.618C358.011 353.557 357.965 353.486 357.933 353.407C357.902 353.329 357.886 353.245 357.888 353.16V330.805C357.888 330.636 357.955 330.474 358.074 330.355C358.194 330.235 358.356 330.168 358.525 330.168C358.694 330.168 358.856 330.235 358.976 330.355C359.096 330.474 359.163 330.636 359.163 330.805V353.118C359.164 353.203 359.149 353.287 359.117 353.366C359.086 353.444 359.039 353.516 358.98 353.576C358.92 353.636 358.85 353.684 358.772 353.717C358.694 353.75 358.61 353.766 358.525 353.766" fill="white"/>
<path d="M371.882 353.808C371.71 353.808 371.545 353.74 371.423 353.618C371.302 353.497 371.234 353.332 371.234 353.16V330.805C371.234 330.633 371.302 330.469 371.423 330.347C371.545 330.226 371.71 330.157 371.882 330.157C371.966 330.157 372.05 330.174 372.128 330.207C372.206 330.24 372.277 330.287 372.336 330.348C372.396 330.408 372.442 330.48 372.474 330.558C372.505 330.637 372.521 330.721 372.519 330.805V353.118C372.521 353.203 372.505 353.287 372.474 353.366C372.442 353.444 372.396 353.516 372.336 353.576C372.277 353.636 372.206 353.684 372.128 353.717C372.05 353.75 371.966 353.766 371.882 353.766" fill="white"/>
<path d="M291.21 354.09C291.069 354.091 290.933 354.045 290.822 353.96C290.71 353.875 290.63 353.755 290.593 353.62C290.548 353.455 290.57 353.279 290.654 353.13C290.738 352.982 290.878 352.872 291.042 352.826C311.798 347.078 308.276 331.61 308.119 330.952C308.1 330.87 308.096 330.785 308.109 330.702C308.122 330.619 308.151 330.539 308.194 330.468C308.238 330.396 308.296 330.333 308.363 330.284C308.431 330.234 308.508 330.198 308.59 330.178C308.671 330.158 308.756 330.155 308.839 330.168C308.922 330.18 309.002 330.21 309.074 330.253C309.146 330.297 309.208 330.354 309.258 330.422C309.307 330.49 309.343 330.567 309.363 330.649C309.363 330.816 313.366 347.977 291.377 354.07H291.21" fill="white"/>
<path d="M430.439 354.09H430.272C408.325 347.997 412.244 330.837 412.286 330.669C412.338 330.517 412.446 330.389 412.587 330.312C412.729 330.234 412.894 330.212 413.051 330.25C413.207 330.288 413.345 330.383 413.435 330.517C413.525 330.65 413.563 330.813 413.54 330.973C413.373 331.631 409.861 347.099 430.617 352.847C430.762 352.893 430.887 352.99 430.968 353.119C431.049 353.249 431.082 353.403 431.06 353.554C431.039 353.705 430.965 353.844 430.852 353.946C430.738 354.048 430.592 354.107 430.439 354.111" fill="white"/>
<path d="M300.239 254.533C298.714 251.837 269.44 229.555 258.435 221.246C257.285 220.377 256.481 219.128 256.166 217.721C255.85 216.315 256.043 214.842 256.711 213.565L276.014 176.495C279.765 169.196 285.319 162.976 292.149 158.425C298.979 153.875 306.857 151.144 315.038 150.492C316.24 150.409 317.442 150.346 318.654 150.346H343.089L369.133 169.931L396.619 150.367H415.599C416.811 150.367 418.013 150.43 419.215 150.513C432.331 151.558 446.565 158.613 455.919 167.768C461.573 173.307 490.408 206.218 490.408 206.218L432.268 247.562L425.214 317.585C425.214 317.585 303.082 319.069 301.358 317.888C301.264 317.825 300.239 254.575 300.239 254.575" fill="white"/>
<path d="M300.239 254.533C298.714 251.837 269.44 229.555 258.435 221.246C257.285 220.377 256.481 219.128 256.166 217.721C255.85 216.315 256.043 214.842 256.711 213.565L276.014 176.495C279.765 169.196 285.319 162.976 292.149 158.425C298.979 153.875 306.857 151.144 315.038 150.492C316.24 150.409 317.442 150.346 318.654 150.346H343.089L369.133 169.931L396.619 150.367H415.599C416.811 150.367 418.013 150.43 419.215 150.513C432.331 151.558 446.565 158.613 455.919 167.768C461.573 173.307 490.408 206.218 490.408 206.218L432.268 247.562L425.214 317.585C425.214 317.585 303.082 319.069 301.358 317.888C301.264 317.783 300.239 254.533 300.239 254.533Z" stroke="#3F4DA1" stroke-miterlimit="10"/>
<path d="M329.461 318.954C313.282 318.954 301.608 318.807 301.002 318.389C300.636 318.139 300.636 318.128 299.602 254.742C298.034 252.589 282.243 240.048 258.08 221.769C256.805 220.812 255.912 219.433 255.562 217.878C255.211 216.323 255.426 214.694 256.167 213.283L275.439 176.181C279.225 168.771 284.851 162.458 291.778 157.846C298.704 153.235 306.699 150.48 314.996 149.844C316.303 149.74 317.494 149.688 318.654 149.688H343.089C343.229 149.691 343.364 149.739 343.476 149.824L369.143 169.116L396.254 149.813C396.357 149.73 396.487 149.686 396.619 149.688H415.599C416.759 149.688 417.95 149.74 419.257 149.844C431.986 150.806 446.544 157.651 456.368 167.277C461.97 172.764 490.554 205.423 490.857 205.758C490.918 205.823 490.963 205.901 490.99 205.986C491.017 206.071 491.025 206.161 491.014 206.249C491.005 206.338 490.977 206.425 490.932 206.502C490.887 206.58 490.826 206.647 490.753 206.698L432.895 247.897L425.851 317.585C425.834 317.74 425.76 317.884 425.645 317.989C425.53 318.095 425.38 318.155 425.224 318.159C406.475 318.389 359.957 318.912 329.461 318.912M301.985 317.376C307.9 318.139 391.509 317.323 424.628 316.926L431.631 247.479C431.639 247.387 431.668 247.298 431.715 247.218C431.762 247.139 431.826 247.071 431.902 247.019L489.383 206.071C485.642 201.797 460.632 173.255 455.459 168.197C445.834 158.791 431.578 152.071 419.142 151.119C417.867 151.025 416.696 150.973 415.578 150.973H396.766L369.509 170.433C369.401 170.515 369.269 170.559 369.133 170.559C368.997 170.559 368.865 170.515 368.757 170.433L342.88 150.973H318.654C317.536 150.973 316.365 150.973 315.09 151.119C307.012 151.739 299.229 154.423 292.485 158.914C285.742 163.405 280.264 169.552 276.578 176.766L257.306 213.868C256.704 215.013 256.529 216.334 256.812 217.596C257.096 218.858 257.819 219.978 258.853 220.755C273.871 232.116 299.299 251.565 300.793 254.199C300.846 254.291 300.875 254.395 300.877 254.502C301.211 274.913 301.849 312.903 301.985 317.344" fill="#3F4DA1"/>
<path d="M370.429 229.283C370.333 229.285 370.239 229.265 370.152 229.225C370.065 229.186 369.988 229.127 369.927 229.053C324.779 173.976 340.351 150.785 341.04 149.824C341.139 149.685 341.288 149.591 341.456 149.563C341.623 149.534 341.795 149.574 341.934 149.672C342.073 149.77 342.166 149.92 342.195 150.087C342.223 150.255 342.184 150.427 342.086 150.566C341.929 150.795 326.493 174.039 370.92 228.238C371.029 228.37 371.081 228.54 371.066 228.71C371.05 228.88 370.968 229.038 370.837 229.147C370.719 229.236 370.576 229.283 370.429 229.283Z" fill="#3F4DA1"/>
<path d="M371.181 229.283C371.059 229.286 370.939 229.253 370.835 229.189C370.731 229.124 370.648 229.032 370.595 228.922C370.542 228.812 370.522 228.689 370.537 228.568C370.552 228.446 370.602 228.332 370.68 228.238C414.324 173.61 397.853 150.607 397.665 150.377C397.614 150.309 397.577 150.231 397.556 150.148C397.536 150.065 397.532 149.979 397.544 149.895C397.557 149.81 397.586 149.729 397.63 149.656C397.674 149.583 397.732 149.519 397.8 149.468C397.869 149.417 397.947 149.381 398.03 149.36C398.113 149.339 398.199 149.335 398.283 149.348C398.368 149.36 398.449 149.39 398.522 149.434C398.595 149.478 398.659 149.535 398.71 149.604C399.441 150.555 415.975 173.642 371.714 229.032C371.656 229.109 371.579 229.171 371.492 229.212C371.405 229.254 371.309 229.275 371.213 229.273" fill="#3F4DA1"/>
<path d="M387.067 282.249L355.881 282.417C355.536 282.417 355.206 282.281 354.961 282.038C354.716 281.795 354.577 281.465 354.575 281.121L354.292 231.206C354.292 230.863 354.429 230.533 354.672 230.29C354.915 230.047 355.245 229.91 355.588 229.91L386.764 229.795C387.109 229.795 387.439 229.932 387.684 230.174C387.929 230.417 388.068 230.747 388.07 231.091L388.353 281.006C388.353 281.348 388.218 281.676 387.977 281.918C387.736 282.161 387.409 282.299 387.067 282.302" fill="#3F4DA1"/>
<path d="M356.132 283.096C355.541 283.096 354.973 282.862 354.554 282.445C354.135 282.028 353.898 281.461 353.895 280.87L353.613 231.551C353.61 230.96 353.842 230.391 354.257 229.97C354.672 229.549 355.237 229.31 355.829 229.304L386.44 229.106C387.03 229.106 387.597 229.34 388.014 229.758C388.432 230.175 388.666 230.741 388.666 231.332L388.948 280.65C388.951 280.944 388.896 281.235 388.786 281.506C388.676 281.778 388.513 282.026 388.307 282.234C388.102 282.443 387.856 282.609 387.586 282.723C387.316 282.837 387.026 282.896 386.733 282.897L356.184 283.096H356.132ZM386.44 230.391L355.85 230.548C355.725 230.548 355.602 230.573 355.487 230.62C355.373 230.668 355.268 230.739 355.181 230.827C355.093 230.916 355.024 231.02 354.978 231.136C354.931 231.251 354.908 231.375 354.909 231.499L355.191 280.828C355.191 280.953 355.216 281.076 355.264 281.191C355.312 281.305 355.382 281.409 355.47 281.497C355.559 281.584 355.664 281.654 355.779 281.7C355.894 281.747 356.018 281.77 356.142 281.769L386.733 281.612C386.985 281.612 387.227 281.512 387.405 281.333C387.584 281.155 387.684 280.913 387.684 280.661L387.485 231.332C387.482 231.081 387.381 230.842 387.203 230.666C387.025 230.49 386.785 230.391 386.534 230.391" fill="#3F4DA1"/>
<path d="M380.75 238.155L362.168 238.249L362.248 254.03L380.83 253.936L380.75 238.155Z" fill="#3F4DA1"/>
<path d="M362.256 254.679C362.087 254.677 361.925 254.609 361.805 254.49C361.684 254.372 361.614 254.211 361.608 254.042L361.525 238.25C361.523 238.083 361.586 237.922 361.702 237.801C361.762 237.74 361.834 237.692 361.913 237.659C361.992 237.627 362.077 237.611 362.162 237.613L380.734 237.519C380.903 237.519 381.065 237.586 381.185 237.705C381.304 237.825 381.371 237.987 381.371 238.156L381.465 253.937C381.465 254.107 381.398 254.269 381.279 254.388C381.159 254.508 380.997 254.575 380.828 254.575L362.246 254.679H362.256ZM362.81 238.888L362.894 253.394L380.169 253.3L380.086 238.804L362.81 238.888Z" fill="white"/>
<path d="M363.019 265.507C362.85 265.507 362.688 265.44 362.568 265.32C362.449 265.201 362.382 265.038 362.382 264.869C362.382 264.7 362.449 264.538 362.568 264.419C362.688 264.299 362.85 264.232 363.019 264.232L380.169 264.138C380.339 264.14 380.5 264.208 380.621 264.327C380.742 264.445 380.812 264.606 380.817 264.775C380.817 264.945 380.751 265.109 380.631 265.23C380.512 265.351 380.35 265.42 380.18 265.423L362.998 265.507H363.019Z" fill="white"/>
<path d="M363.051 271.6C362.967 271.6 362.884 271.583 362.807 271.551C362.729 271.519 362.659 271.472 362.6 271.413C362.541 271.354 362.494 271.284 362.462 271.206C362.429 271.129 362.413 271.046 362.413 270.962C362.412 270.879 362.427 270.795 362.457 270.718C362.488 270.64 362.534 270.569 362.592 270.508C362.651 270.448 362.72 270.4 362.797 270.367C362.874 270.334 362.956 270.316 363.04 270.314L380.222 270.231C380.313 270.219 380.406 270.227 380.494 270.254C380.582 270.281 380.663 270.326 380.732 270.387C380.801 270.448 380.856 270.523 380.894 270.607C380.932 270.69 380.952 270.781 380.952 270.873C380.952 270.965 380.932 271.056 380.894 271.14C380.856 271.224 380.801 271.299 380.732 271.36C380.663 271.421 380.582 271.466 380.494 271.493C380.406 271.52 380.313 271.528 380.222 271.516L363.051 271.6Z" fill="white"/>
<path d="M332.742 304.197L258.059 304.991C257.691 304.995 257.326 304.927 256.984 304.79C256.643 304.653 256.332 304.45 256.069 304.193C255.806 303.936 255.596 303.629 255.452 303.291C255.307 302.953 255.231 302.589 255.226 302.222L254.181 200.24C254.177 199.872 254.246 199.508 254.383 199.167C254.52 198.826 254.723 198.516 254.98 198.254C255.237 197.991 255.544 197.783 255.882 197.639C256.22 197.496 256.584 197.421 256.951 197.418L331.634 196.613C332.376 196.608 333.089 196.896 333.617 197.415C334.146 197.934 334.448 198.642 334.456 199.383L335.501 301.365C335.51 302.106 335.224 302.82 334.707 303.351C334.19 303.882 333.483 304.186 332.742 304.197Z" fill="white"/>
<path d="M258.654 305.629C257.581 305.626 256.553 305.201 255.79 304.447C255.027 303.692 254.592 302.667 254.578 301.594L253.533 200.877C253.527 200.343 253.627 199.812 253.828 199.317C254.029 198.822 254.327 198.372 254.704 197.993C255.075 197.607 255.52 197.301 256.012 197.091C256.503 196.881 257.033 196.771 257.567 196.77L330.987 195.986C332.061 195.988 333.094 196.403 333.871 197.146C334.253 197.519 334.558 197.964 334.768 198.456C334.978 198.947 335.089 199.475 335.094 200.01L336.139 300.727C336.146 301.264 336.046 301.796 335.847 302.294C335.647 302.792 335.35 303.245 334.974 303.628C334.598 304.011 334.15 304.316 333.656 304.524C333.162 304.733 332.631 304.842 332.094 304.845L258.675 305.629H258.654ZM331.049 197.261L257.63 198.045C256.891 198.056 256.186 198.359 255.669 198.887C255.152 199.416 254.865 200.127 254.871 200.867L255.916 301.584C255.933 302.322 256.237 303.023 256.765 303.539C257.292 304.055 258 304.343 258.738 304.343L332.094 303.559C332.461 303.557 332.824 303.481 333.161 303.338C333.499 303.194 333.805 302.985 334.061 302.723C334.318 302.461 334.52 302.15 334.656 301.809C334.792 301.469 334.859 301.104 334.853 300.738L333.808 200.02C333.803 199.29 333.51 198.592 332.994 198.075C332.478 197.559 331.779 197.267 331.049 197.261Z" fill="#3F4DA1"/>
<path d="M318.508 193.582C318.498 192.77 318.328 191.967 318.008 191.221C317.687 190.474 317.222 189.798 316.639 189.232C316.056 188.666 315.368 188.221 314.612 187.921C313.857 187.622 313.05 187.476 312.237 187.489L301.786 187.604C301.835 187.304 301.863 187 301.87 186.695C301.894 185.861 301.749 185.03 301.444 184.254C301.139 183.477 300.68 182.77 300.096 182.174C299.511 181.579 298.812 181.108 298.04 180.789C297.269 180.471 296.441 180.311 295.607 180.321C294.772 180.33 293.948 180.507 293.184 180.843C292.42 181.178 291.731 181.664 291.16 182.272C290.588 182.88 290.145 183.597 289.857 184.381C289.57 185.164 289.443 185.997 289.485 186.831C289.494 187.133 289.529 187.434 289.59 187.73L278.856 187.845C278.044 187.854 277.241 188.024 276.495 188.345C275.748 188.666 275.073 189.131 274.506 189.713C273.94 190.296 273.495 190.985 273.196 191.74C272.896 192.496 272.75 193.303 272.763 194.115L272.826 200.271L318.508 199.738V193.582Z" fill="#3F4DA1"/>
<path d="M272.837 200.867C272.755 200.868 272.675 200.852 272.599 200.822C272.524 200.791 272.455 200.746 272.398 200.689C272.335 200.63 272.285 200.559 272.251 200.479C272.217 200.4 272.199 200.315 272.199 200.229L272.136 194.074C272.12 192.273 272.818 190.539 274.077 189.251C275.337 187.964 277.056 187.229 278.856 187.207L288.869 187.103C288.863 187.012 288.863 186.921 288.869 186.831C288.849 185.02 289.549 183.275 290.815 181.98C292.081 180.685 293.809 179.945 295.62 179.923C297.429 179.917 299.167 180.623 300.46 181.888C301.752 183.153 302.495 184.876 302.528 186.685C302.533 186.775 302.533 186.866 302.528 186.956L312.269 186.852C313.161 186.842 314.046 187.008 314.874 187.341C315.702 187.673 316.456 188.166 317.094 188.79C317.731 189.414 318.24 190.157 318.59 190.978C318.94 191.798 319.125 192.68 319.135 193.572L319.198 199.728C319.199 199.811 319.184 199.894 319.153 199.972C319.122 200.05 319.077 200.121 319.018 200.181C318.96 200.242 318.891 200.29 318.814 200.323C318.737 200.356 318.654 200.374 318.571 200.376L272.868 200.867H272.837ZM295.683 181.208H295.63C294.159 181.227 292.754 181.829 291.724 182.88C290.694 183.932 290.122 185.348 290.133 186.82C290.133 187.082 290.133 187.333 290.217 187.573C290.235 187.668 290.232 187.766 290.208 187.86C290.185 187.953 290.141 188.041 290.081 188.116C290.025 188.193 289.953 188.256 289.87 188.301C289.787 188.346 289.695 188.373 289.6 188.378L278.867 188.493C277.406 188.512 276.012 189.109 274.99 190.152C273.968 191.196 273.4 192.602 273.411 194.063L273.474 199.581L317.891 199.101L317.829 193.593C317.818 192.14 317.232 190.751 316.2 189.729C315.168 188.707 313.773 188.134 312.321 188.137H312.237L301.786 188.242C301.694 188.248 301.601 188.233 301.515 188.197C301.43 188.16 301.354 188.104 301.295 188.033C301.235 187.963 301.19 187.881 301.163 187.793C301.136 187.705 301.128 187.612 301.138 187.521C301.185 187.248 301.213 186.972 301.222 186.695C301.2 185.234 300.605 183.84 299.565 182.814C298.525 181.787 297.123 181.211 295.662 181.208" fill="#3F4DA1"/>
<path d="M298.024 186.737C298.028 187.2 297.895 187.654 297.641 188.041C297.387 188.428 297.024 188.731 296.598 188.912C296.172 189.093 295.701 189.144 295.247 189.058C294.792 188.971 294.373 188.752 294.042 188.428C293.712 188.103 293.485 187.688 293.391 187.235C293.297 186.782 293.339 186.31 293.512 185.881C293.685 185.452 293.982 185.084 294.365 184.823C294.747 184.562 295.199 184.421 295.662 184.417C295.97 184.413 296.275 184.469 296.561 184.584C296.847 184.699 297.107 184.869 297.326 185.084C297.546 185.3 297.721 185.557 297.84 185.841C297.96 186.124 298.022 186.429 298.024 186.737Z" fill="#3F4DA1"/>
<path d="M295.683 189.736C294.898 189.736 294.145 189.427 293.588 188.875C293.03 188.323 292.712 187.574 292.704 186.789C292.696 186.197 292.864 185.616 293.186 185.119C293.508 184.623 293.971 184.233 294.515 184C295.059 183.767 295.661 183.7 296.243 183.809C296.825 183.918 297.361 184.197 297.784 184.612C298.207 185.026 298.498 185.556 298.619 186.136C298.74 186.715 298.686 187.318 298.464 187.867C298.243 188.416 297.863 188.887 297.373 189.219C296.884 189.552 296.306 189.732 295.714 189.736H295.683ZM295.683 185.065C295.459 185.066 295.239 185.112 295.033 185.199C294.828 185.286 294.641 185.412 294.485 185.572C294.328 185.731 294.205 185.92 294.122 186.127C294.039 186.334 293.997 186.555 294 186.779C293.993 187.002 294.031 187.224 294.112 187.433C294.193 187.641 294.314 187.831 294.47 187.991C294.799 188.294 295.226 188.468 295.672 188.482C296.1 188.449 296.499 188.255 296.79 187.94C297.081 187.626 297.242 187.213 297.242 186.784C297.242 186.355 297.081 185.942 296.79 185.627C296.499 185.313 296.1 185.119 295.672 185.086" fill="white"/>
<path d="M288.2 245.629L260.149 247.562L261.424 235.899C261.957 233.213 261.351 230.799 259.083 229.273C258.111 228.619 257.008 228.187 255.851 228.008C254.694 227.828 253.512 227.905 252.388 228.233C251.264 228.561 250.226 229.132 249.348 229.906C248.469 230.68 247.772 231.638 247.304 232.711L231.314 272.843C226.329 285.385 224.124 312.087 237.292 314.92L238.139 315.244C242.701 316.925 247.663 317.194 252.38 316.014C257.096 314.833 261.348 312.26 264.58 308.628C265.96 307.134 267.318 306.151 268.52 306.172C271.217 306.172 274.561 304.897 277.132 304.301C280.256 303.608 283.3 302.592 286.214 301.271C287.627 300.684 288.918 299.836 290.018 298.773C293.227 295.376 290.729 289.523 285.89 290.14L278.689 291.049C283.748 290.004 288.304 288.855 291.534 288.008C292.665 287.731 293.685 287.117 294.46 286.248C295.234 285.378 295.726 284.293 295.871 283.138C295.951 282.381 295.862 281.615 295.611 280.896C295.361 280.177 294.954 279.523 294.421 278.979C293.887 278.436 293.241 278.017 292.526 277.753C291.812 277.489 291.048 277.387 290.29 277.452L274.467 278.727C281.298 277.919 288.04 276.481 294.606 274.432C295.877 274.006 296.964 273.158 297.687 272.028C298.409 270.899 298.724 269.557 298.578 268.224L298.515 267.597C298.18 264.462 295.327 260.961 292.171 261.326L290.175 261.379C292.206 261.095 294.047 260.032 295.309 258.415C296.571 256.798 297.155 254.754 296.937 252.715C296.831 251.675 296.521 250.666 296.024 249.746C295.527 248.826 294.854 248.014 294.042 247.355C293.23 246.697 292.295 246.205 291.293 245.909C290.29 245.613 289.239 245.517 288.2 245.629Z" fill="white"/>
<path d="M246.458 317.459C243.54 317.459 240.647 316.928 237.919 315.892L237.062 315.568C235.471 315.181 233.987 314.441 232.721 313.402C231.454 312.364 230.438 311.054 229.747 309.569C224.636 299.985 227.05 281.967 230.792 272.655L246.782 232.513C247.282 231.363 248.028 230.338 248.967 229.507C249.906 228.677 251.015 228.062 252.217 227.705C253.423 227.335 254.696 227.237 255.945 227.417C257.193 227.598 258.386 228.053 259.438 228.75C261.779 230.318 262.678 232.837 262.051 236.066L260.87 246.925L288.2 244.981C290.452 244.747 292.706 245.412 294.47 246.831C295.35 247.54 296.08 248.417 296.619 249.411C297.157 250.405 297.492 251.496 297.606 252.621C297.78 254.207 297.505 255.81 296.812 257.248C296.119 258.685 295.036 259.9 293.687 260.752C294.931 261.059 296.054 261.737 296.905 262.695C298.153 264.026 298.95 265.715 299.184 267.524L299.246 268.151C299.418 269.63 299.073 271.123 298.272 272.377C297.47 273.632 296.261 274.572 294.847 275.038C293.101 275.613 290.739 276.313 287.677 277.024L290.29 276.825C291.144 276.751 292.004 276.867 292.808 277.164C293.612 277.462 294.34 277.934 294.94 278.546C295.539 279.159 295.996 279.897 296.276 280.707C296.556 281.517 296.653 282.38 296.561 283.232C296.404 284.519 295.859 285.727 294.998 286.696C294.138 287.665 293.002 288.349 291.743 288.656L287.928 289.638C288.689 289.829 289.398 290.184 290.007 290.679C290.616 291.174 291.108 291.796 291.45 292.502C292.014 293.587 292.224 294.821 292.052 296.032C291.879 297.243 291.333 298.369 290.488 299.253C289.331 300.369 287.973 301.256 286.486 301.866C283.532 303.224 280.447 304.275 277.278 305.002C276.526 305.179 275.711 305.409 274.864 305.65C272.815 306.36 270.676 306.775 268.51 306.883C267.872 306.883 266.785 307.259 265.061 309.14C262.71 311.748 259.841 313.838 256.639 315.277C253.436 316.717 249.969 317.474 246.458 317.501M254.631 228.667C253.923 228.666 253.219 228.768 252.541 228.97C251.506 229.268 250.55 229.79 249.741 230.5C248.931 231.21 248.289 232.09 247.858 233.077L231.879 273.199C228.263 282.281 225.88 299.797 230.834 309.036C231.453 310.373 232.369 311.551 233.511 312.482C234.654 313.413 235.993 314.071 237.428 314.408L238.369 314.763C242.824 316.405 247.672 316.66 252.275 315.496C256.879 314.332 261.022 311.803 264.162 308.241C265.834 306.423 267.297 305.576 268.583 305.566C270.622 305.467 272.635 305.073 274.561 304.395C275.428 304.145 276.265 303.904 277.038 303.716C280.12 303.019 283.122 302.004 285.994 300.685C287.319 300.141 288.529 299.35 289.558 298.355C290.215 297.659 290.639 296.775 290.77 295.828C290.901 294.88 290.733 293.914 290.29 293.066C289.907 292.272 289.279 291.622 288.497 291.214C287.716 290.805 286.823 290.659 285.953 290.798L278.752 291.708C278.587 291.729 278.421 291.685 278.288 291.585C278.156 291.486 278.067 291.339 278.041 291.175C278.013 291.012 278.05 290.844 278.144 290.707C278.238 290.571 278.381 290.476 278.543 290.443C283.768 289.346 288.388 288.186 291.345 287.412C292.354 287.171 293.266 286.63 293.961 285.859C294.655 285.088 295.099 284.125 295.233 283.096C295.308 282.434 295.235 281.764 295.02 281.133C294.805 280.503 294.453 279.927 293.99 279.449C293.526 278.97 292.962 278.6 292.339 278.365C291.716 278.13 291.048 278.036 290.384 278.09L274.613 279.375C274.448 279.384 274.286 279.33 274.159 279.223C274.033 279.116 273.952 278.965 273.934 278.801C273.913 278.636 273.959 278.469 274.061 278.338C274.163 278.207 274.312 278.121 274.477 278.1C281.26 277.296 287.954 275.862 294.47 273.815C295.604 273.438 296.574 272.683 297.219 271.677C297.863 270.671 298.144 269.475 298.013 268.287L297.94 267.66C297.74 266.126 297.06 264.696 295.996 263.573C295.549 263.032 294.982 262.602 294.34 262.317C293.697 262.033 292.998 261.901 292.297 261.933L290.29 261.995C290.127 261.996 289.97 261.937 289.848 261.829C289.727 261.721 289.65 261.572 289.631 261.41C289.614 261.245 289.662 261.08 289.766 260.951C289.87 260.822 290.021 260.739 290.185 260.72C291.968 260.326 293.539 259.279 294.589 257.785C295.64 256.292 296.094 254.46 295.862 252.648C295.63 250.837 294.729 249.178 293.337 247.997C291.944 246.816 290.16 246.199 288.336 246.266L260.264 248.252C260.171 248.258 260.078 248.243 259.991 248.208C259.904 248.174 259.826 248.121 259.762 248.053C259.696 247.987 259.646 247.906 259.615 247.818C259.584 247.729 259.574 247.635 259.585 247.541L260.86 235.867C261.403 233.14 260.703 231.133 258.769 229.848C257.56 229.03 256.133 228.593 254.673 228.594" fill="#3F4DA1"/>
<path d="M266.514 265.12C266.359 265.121 266.21 265.065 266.094 264.963C265.979 264.861 265.905 264.72 265.887 264.566C265.866 264.399 265.911 264.23 266.012 264.095C266.113 263.961 266.263 263.871 266.43 263.845L291.826 260.428C291.909 260.414 291.995 260.418 292.076 260.438C292.158 260.459 292.235 260.495 292.302 260.546C292.37 260.597 292.426 260.661 292.468 260.734C292.51 260.807 292.537 260.887 292.547 260.971C292.559 261.055 292.554 261.14 292.532 261.222C292.511 261.304 292.473 261.381 292.422 261.448C292.37 261.515 292.306 261.571 292.232 261.613C292.159 261.655 292.077 261.682 291.993 261.692L266.608 265.12H266.514Z" fill="#3F4DA1"/>
<path d="M268.687 280.191C268.534 280.192 268.384 280.138 268.267 280.038C268.15 279.938 268.073 279.799 268.05 279.647C268.037 279.563 268.04 279.478 268.06 279.395C268.081 279.313 268.117 279.235 268.168 279.167C268.218 279.099 268.282 279.042 268.355 278.998C268.428 278.955 268.509 278.927 268.593 278.916L287.876 276.094C288.043 276.073 288.212 276.118 288.347 276.219C288.481 276.321 288.571 276.471 288.597 276.637C288.61 276.721 288.607 276.807 288.586 276.889C288.566 276.972 288.53 277.049 288.479 277.117C288.428 277.185 288.365 277.243 288.292 277.286C288.218 277.329 288.137 277.357 288.053 277.369L268.782 280.191H268.687Z" fill="#3F4DA1"/>
<path d="M271.394 293.035C271.245 293.037 271.099 292.986 270.984 292.89C270.869 292.794 270.792 292.66 270.767 292.512C270.737 292.346 270.774 292.175 270.87 292.035C270.966 291.896 271.113 291.801 271.279 291.77L286.109 289.105C286.193 289.09 286.278 289.092 286.36 289.11C286.443 289.129 286.521 289.163 286.59 289.212C286.659 289.26 286.717 289.322 286.762 289.394C286.807 289.465 286.838 289.545 286.851 289.628C286.882 289.794 286.845 289.966 286.749 290.105C286.653 290.244 286.506 290.34 286.339 290.37L271.478 293.025H271.363" fill="#3F4DA1"/>
<path d="M253.607 249.255C253.45 249.254 253.299 249.196 253.182 249.093C253.065 248.989 252.989 248.846 252.969 248.691C252.948 248.521 252.996 248.349 253.102 248.214C253.208 248.078 253.363 247.991 253.533 247.97L264.674 246.611C264.757 246.6 264.842 246.605 264.923 246.626C265.005 246.648 265.081 246.686 265.147 246.738C265.213 246.789 265.268 246.854 265.309 246.927C265.35 247.001 265.376 247.082 265.385 247.165C265.397 247.249 265.392 247.334 265.37 247.416C265.348 247.498 265.311 247.575 265.259 247.642C265.208 247.709 265.143 247.765 265.07 247.807C264.996 247.849 264.915 247.876 264.831 247.886L253.711 249.245H253.627" fill="#3F4DA1"/>
<path d="M503.273 138.014C503.001 131.074 488.108 110.527 480.145 106.232L486.509 88.9145C488.527 83.459 486.008 77.2406 481.127 76.7285C477.772 76.3836 474.261 78.7351 470.383 85.1834C470.383 85.1834 455.867 115.251 453.359 117.519C433.292 135.62 439.835 166.995 439.835 166.995L430.011 246.423C428.882 258.588 428.715 273.648 437.327 283.357C444.517 291.436 456.954 293.589 467.196 290.109C498.33 279.532 495.717 243.486 494.776 217.097C494.473 208.601 492.623 163.525 492.623 163.525L499.772 151.569C502.226 147.474 503.435 142.753 503.252 137.982" fill="white"/>
<path d="M457.508 292.387C449.523 292.387 441.831 289.335 436.908 283.807C428.098 273.91 428.276 258.62 429.415 246.402L439.229 166.974C438.831 164.884 433.449 134.575 452.972 116.997C454.749 115.408 464.04 96.8991 469.85 84.8595C473.665 78.5156 477.396 75.6625 481.242 76.0492C482.305 76.1745 483.324 76.5457 484.218 77.1335C485.113 77.7213 485.858 78.5094 486.394 79.4353C487.23 80.8874 487.733 82.5074 487.865 84.1777C487.997 85.8481 487.755 87.5268 487.157 89.0922L480.97 105.898C489.133 110.778 503.681 130.98 503.963 137.951C504.147 142.864 502.894 147.724 500.357 151.935L493.303 163.724C493.439 166.932 495.163 208.987 495.456 217.108L495.56 220.243C496.511 245.66 497.818 280.473 467.436 290.788C464.228 291.876 460.864 292.431 457.476 292.429M480.5 77.3451C477.365 77.3451 474.229 80.0206 470.927 85.5074C469.464 88.5487 456.295 115.711 453.787 117.989C434.233 135.631 440.399 166.556 440.462 166.869C440.472 166.939 440.472 167.009 440.462 167.078L430.638 246.507C429.52 258.442 429.331 273.387 437.818 282.929C444.444 290.38 456.442 293.087 466.997 289.503C496.48 279.49 495.215 246.653 494.264 220.222L494.149 217.087C493.857 208.726 492.059 163.964 491.986 163.514C491.986 163.39 492.018 163.267 492.08 163.159L499.239 151.214C501.628 147.226 502.802 142.627 502.615 137.982C502.353 131.273 487.45 110.81 479.831 106.734C479.696 106.66 479.591 106.541 479.535 106.398C479.48 106.254 479.477 106.095 479.528 105.95L485.914 88.7055C486.444 87.3229 486.661 85.8399 486.549 84.3634C486.437 82.8869 485.998 81.4537 485.266 80.1669C484.831 79.4115 484.227 78.7666 483.502 78.2826C482.777 77.7986 481.95 77.4885 481.085 77.3765H480.521" fill="#3F4DA1"/>
<path d="M468.419 117.697L494.473 137.47C495.656 138.366 496.569 139.569 497.115 140.949C497.66 142.328 497.816 143.831 497.566 145.293C497.316 146.755 496.669 148.12 495.696 149.24C494.723 150.36 493.461 151.19 492.049 151.642L477.919 156.178L464.531 139.581L461.908 121.898C461.792 121.091 461.911 120.268 462.25 119.527C462.589 118.785 463.134 118.157 463.82 117.716C464.506 117.276 465.304 117.042 466.12 117.042C466.935 117.042 467.733 117.277 468.419 117.718" fill="#3F4DA1"/>
<path d="M498.267 126.518C497.573 126.904 496.916 127.352 496.302 127.855L484.451 137.408C481.503 139.78 481.263 144.441 484.283 146.72C486.374 148.298 489.363 148.35 493.825 146.166L505.029 138.505C506.676 137.421 507.915 135.82 508.551 133.954C509.187 132.088 509.183 130.064 508.54 128.2C507.401 125.159 504.663 123.079 498.288 126.518" fill="white"/>
<path d="M487.816 148.496C486.401 148.53 485.016 148.085 483.886 147.232C483.14 146.66 482.535 145.924 482.118 145.082C481.702 144.239 481.484 143.312 481.482 142.372C481.466 141.326 481.688 140.291 482.132 139.343C482.576 138.396 483.229 137.563 484.043 136.906L495.915 127.375C496.566 126.839 497.266 126.367 498.006 125.964C501.266 124.208 503.931 123.696 505.938 124.448C506.705 124.763 507.392 125.244 507.951 125.857C508.509 126.469 508.925 127.198 509.167 127.991C509.848 129.99 509.847 132.157 509.167 134.155C508.486 136.153 507.163 137.87 505.405 139.038L494.212 146.699C492.254 147.774 490.078 148.392 487.847 148.507M503.952 125.389C502.062 125.523 500.231 126.107 498.612 127.092C497.952 127.461 497.325 127.888 496.741 128.367L484.879 137.909C484.218 138.446 483.686 139.125 483.324 139.896C482.963 140.667 482.779 141.51 482.789 142.361C482.788 143.102 482.958 143.832 483.286 144.496C483.614 145.16 484.091 145.738 484.68 146.187C486.698 147.712 489.593 147.503 493.553 145.559L504.673 137.951C506.193 136.945 507.338 135.465 507.929 133.741C508.521 132.018 508.526 130.147 507.945 128.42C507.763 127.801 507.447 127.229 507.019 126.747C506.591 126.264 506.061 125.883 505.468 125.629C504.977 125.447 504.455 125.358 503.931 125.368" fill="#3F4DA1"/>
<path d="M490.878 116.505C490.184 116.892 489.527 117.339 488.913 117.843L477.051 127.375C474.094 129.747 473.916 134.408 476.884 136.687C478.974 138.265 481.953 138.317 486.426 136.122L497.619 128.472C499.265 127.387 500.504 125.787 501.142 123.922C501.779 122.056 501.779 120.032 501.141 118.167C500.002 115.126 497.253 113.046 490.878 116.485" fill="white"/>
<path d="M480.416 138.484C479.005 138.516 477.624 138.07 476.497 137.22C475.75 136.648 475.143 135.913 474.725 135.071C474.306 134.228 474.087 133.301 474.083 132.36C474.071 131.315 474.296 130.281 474.739 129.334C475.182 128.388 475.833 127.554 476.644 126.894L488.506 117.352C489.156 116.816 489.856 116.344 490.596 115.941C493.857 114.185 496.532 113.673 498.539 114.426C499.301 114.742 499.984 115.224 500.537 115.837C501.09 116.449 501.5 117.178 501.737 117.969C502.42 119.966 502.422 122.133 501.743 124.131C501.064 126.13 499.743 127.847 497.985 129.015L486.771 136.676C484.813 137.752 482.637 138.371 480.406 138.484M491.171 117.07C490.51 117.438 489.884 117.865 489.3 118.345L477.438 127.887C476.778 128.425 476.248 129.104 475.886 129.875C475.525 130.646 475.341 131.488 475.348 132.339C475.345 133.086 475.516 133.824 475.848 134.493C476.18 135.163 476.664 135.745 477.26 136.195C479.267 137.721 482.172 137.512 486.133 135.568L497.222 127.96C498.745 126.955 499.894 125.474 500.487 123.748C501.081 122.022 501.087 120.148 500.503 118.418C500.324 117.8 500.01 117.229 499.583 116.746C499.157 116.264 498.629 115.882 498.037 115.628C496.386 115 494.066 115.492 491.15 117.07" fill="#3F4DA1"/>
<path d="M483.635 104.581C482.96 104.997 482.324 105.472 481.733 106.002L470.331 116.098C467.488 118.606 467.468 123.267 470.592 125.41C472.745 126.883 475.734 126.8 480.103 124.365L490.951 116.234C492.544 115.074 493.705 113.418 494.254 111.527C494.803 109.635 494.707 107.614 493.982 105.783C492.696 102.794 489.864 100.839 483.656 104.581" fill="white"/>
<path d="M473.822 127.03C472.223 127.064 470.674 126.475 469.503 125.386C468.333 124.297 467.632 122.795 467.551 121.198C467.49 120.154 467.666 119.109 468.066 118.143C468.466 117.176 469.08 116.313 469.861 115.617L481.263 105.532C481.882 104.971 482.55 104.467 483.259 104.027C486.394 102.114 489.08 101.487 491.118 102.135C491.9 102.413 492.61 102.863 493.196 103.45C493.782 104.038 494.229 104.749 494.505 105.532C495.279 107.495 495.383 109.66 494.799 111.688C494.215 113.717 492.976 115.495 491.275 116.746L480.5 124.919C478.491 126.153 476.207 126.871 473.853 127.009M489.478 103.149C487.502 103.307 485.603 103.981 483.97 105.103C483.33 105.505 482.726 105.96 482.162 106.462L470.76 116.558C470.12 117.123 469.617 117.825 469.287 118.613C468.958 119.4 468.811 120.252 468.858 121.104C468.889 121.852 469.094 122.582 469.457 123.237C469.82 123.892 470.33 124.454 470.948 124.877C473.038 126.298 475.912 125.922 479.779 123.832L490.533 115.711C492.005 114.632 493.08 113.099 493.592 111.347C494.104 109.596 494.024 107.725 493.365 106.023C493.153 105.411 492.809 104.854 492.358 104.389C491.906 103.925 491.358 103.566 490.753 103.337C490.329 103.208 489.889 103.145 489.446 103.149" fill="#3F4DA1"/>
<path d="M477.574 156.554C477.574 156.554 479.34 137.397 459.953 140.313C456.818 140.783 482.946 134.993 482.266 126.444C481.587 117.895 467.426 120.905 453.369 125.337" fill="white"/>
<path d="M477.574 157.192C477.404 157.176 477.247 157.093 477.137 156.962C477.027 156.831 476.974 156.662 476.988 156.491C476.988 156.418 477.668 148.329 472.808 143.772C469.924 141.055 465.639 140.104 460.068 140.94C459.859 140.94 459.222 141.066 459.086 140.47C458.95 139.874 459.222 139.78 460.737 139.32C478.504 134.032 481.9 129.433 481.639 126.497C481.618 125.787 481.428 125.092 481.084 124.47C480.741 123.849 480.254 123.318 479.664 122.922C474.94 119.787 462.503 123.131 453.536 125.943C453.456 125.968 453.371 125.977 453.287 125.97C453.204 125.963 453.122 125.939 453.047 125.9C452.973 125.862 452.906 125.808 452.852 125.744C452.798 125.68 452.757 125.605 452.731 125.525C452.706 125.444 452.697 125.36 452.704 125.276C452.711 125.192 452.735 125.111 452.774 125.036C452.813 124.961 452.866 124.895 452.93 124.841C452.995 124.786 453.069 124.745 453.149 124.72C463.12 121.585 475.212 118.449 480.322 121.856C481.072 122.36 481.693 123.033 482.134 123.821C482.575 124.609 482.825 125.49 482.862 126.392C483.249 130.98 477.312 135.255 464.75 139.393C468.034 139.423 471.194 140.654 473.634 142.853C478.911 147.838 478.201 156.261 478.169 156.617C478.152 156.774 478.077 156.919 477.96 157.025C477.842 157.131 477.69 157.19 477.532 157.192" fill="#3F4DA1"/>
</g>
</g>
<circle cx="123.323" cy="72.9138" r="5.22555" fill="white"/>
<circle cx="123.323" cy="93.8161" r="5.22555" fill="white"/>
<circle cx="123.323" cy="114.718" r="5.22555" fill="white"/>
<circle cx="154.676" cy="72.9138" r="5.22555" fill="white"/>
<circle cx="154.676" cy="93.8161" r="5.22555" fill="white"/>
<circle cx="154.676" cy="114.718" r="5.22555" fill="white"/>
<circle cx="186.03" cy="72.9138" r="5.22555" fill="white"/>
<circle cx="186.03" cy="93.8161" r="5.22555" fill="white"/>
<circle cx="186.03" cy="114.718" r="5.22555" fill="white"/>
<g clip-path="url(#clip1_5_270)">
<path d="M51.3996 281.034L43.081 286.168C41.0295 287.35 38.5931 287.671 36.3056 287.06C34.0181 286.449 32.0661 284.956 30.8775 282.908L29.8641 281.273C28.5536 279.299 28.0795 276.886 28.5458 274.563C29.0122 272.241 30.3808 270.198 32.3516 268.883L40.6701 263.748L51.3996 281.034Z" fill="white"/>
<path d="M43.3937 286.726L51.7029 281.596C51.7724 281.554 51.8328 281.498 51.8805 281.433C51.9283 281.367 51.9623 281.293 51.9807 281.214C51.9991 281.135 52.0015 281.053 51.9877 280.973C51.9738 280.893 51.9441 280.817 51.9002 280.748L41.1707 263.463C41.0847 263.328 40.9514 263.23 40.797 263.189C40.7171 263.171 40.6344 263.169 40.5538 263.184C40.4732 263.199 40.3964 263.229 40.328 263.275L32.0188 268.405C30.9712 269.058 30.0704 269.922 29.3733 270.941C28.6761 271.96 28.1976 273.112 27.9682 274.325C27.4707 276.849 27.9595 279.468 29.334 281.642L30.3429 283.268C31.6835 285.46 33.8103 287.058 36.289 287.735C37.4881 288.055 38.7386 288.134 39.9685 287.969C41.1842 287.797 42.3508 287.374 43.3937 286.726ZM50.5286 280.859L42.7663 285.728C41.8567 286.274 40.8444 286.627 39.7925 286.765C38.7405 286.903 37.6715 286.824 36.6517 286.531C34.4726 285.934 32.6033 284.528 31.4252 282.6L30.4163 280.974C29.2298 279.072 28.8061 276.792 29.2303 274.591C29.4226 273.539 29.8317 272.539 30.4317 271.654C31.0318 270.768 31.8095 270.018 32.7155 269.45L40.4777 264.582L50.5286 280.859Z" fill="#404CA0"/>
<path d="M107.234 343.03C103.311 345.461 97.8354 343.723 94.9575 339.156L67.159 294.375C64.3139 289.804 65.1864 284.116 69.105 281.676C73.0282 279.245 78.504 280.983 81.3818 285.55L109.18 330.331C112.03 334.912 111.144 340.594 107.234 343.03Z" fill="white"/>
<path d="M107.552 343.55C111.759 340.937 112.727 334.868 109.71 330.009L81.9016 285.232C78.8841 280.373 73.0127 278.534 68.8153 281.143C67.7847 281.8 66.9108 282.676 66.2552 283.707C65.5996 284.739 65.1783 285.902 65.0209 287.115C64.6476 289.756 65.2297 292.443 66.6625 294.693L94.4885 339.508C95.8677 341.787 98.013 343.5 100.54 344.342C101.813 344.757 103.162 344.88 104.489 344.702C105.58 344.538 106.624 344.146 107.552 343.55ZM80.857 285.882L108.698 330.631C111.361 334.918 110.57 340.243 106.95 342.483C106.053 343.023 105.049 343.36 104.008 343.469C102.968 343.578 101.916 343.457 100.927 343.114C98.6773 342.366 96.7706 340.836 95.5529 338.802L67.7449 294.025C66.4662 292.025 65.9435 289.634 66.2707 287.282C66.3991 286.246 66.7544 285.251 67.3115 284.368C67.8686 283.485 68.6137 282.736 69.4935 282.174C70.2849 281.684 71.1692 281.364 72.0906 281.233C73.8428 281.093 75.5987 281.456 77.1517 282.279C78.7047 283.103 79.9902 284.352 80.857 285.882Z" fill="#404CA0"/>
<path d="M82.2016 270.832L84.302 274.215C86.2781 277.398 85.3 281.579 82.1176 283.555L66.9349 292.983C63.7524 294.959 59.5707 293.981 57.5946 290.798L55.4942 287.415C53.5182 284.233 54.4962 280.051 57.6786 278.075L72.8613 268.648C76.0438 266.672 80.2256 267.65 82.2016 270.832Z" fill="white"/>
<path d="M67.2538 293.507L82.4409 284.082C83.2652 283.57 83.9804 282.9 84.5455 282.111C85.1106 281.322 85.5145 280.43 85.7342 279.485C85.9593 278.539 85.994 277.559 85.836 276.6C85.6781 275.641 85.3308 274.724 84.8143 273.901L82.7196 270.512C81.6825 268.848 80.0281 267.663 78.119 267.216C76.2098 266.77 74.2015 267.098 72.5339 268.129L57.3513 277.564C55.687 278.598 54.501 280.25 54.0534 282.158C53.6059 284.066 53.9333 286.073 54.964 287.74L57.0681 291.124C57.5756 291.953 58.2431 292.672 59.0316 293.24C59.8201 293.808 60.7139 294.213 61.6606 294.431C62.5526 294.643 63.4763 294.685 64.3837 294.555C65.4031 294.41 66.3807 294.053 67.2538 293.507ZM81.6844 271.157L83.7886 274.542C84.6455 275.933 84.9173 277.606 84.5449 279.197C84.1724 280.788 83.1858 282.167 81.8005 283.033L66.6134 292.458C65.9284 292.889 65.164 293.179 64.3652 293.31C63.5664 293.441 62.7495 293.411 61.9626 293.221C61.1663 293.037 60.4148 292.695 59.7523 292.216C59.0898 291.737 58.5295 291.13 58.1042 290.432L56.005 287.034C55.5785 286.347 55.2915 285.583 55.1603 284.785C55.0292 283.987 55.0565 283.172 55.2406 282.384C55.4248 281.597 55.7622 280.854 56.2337 280.197C56.7051 279.54 57.3012 278.983 57.9881 278.557L73.1707 269.122C73.8957 268.673 74.7065 268.38 75.5513 268.262C76.7445 268.095 77.9604 268.28 79.0499 268.795C80.1393 269.309 81.055 270.13 81.6844 271.157Z" fill="#404CA0"/>
<path d="M78.7679 275.864L61.3164 286.708C52.7715 291.95 41.307 288.928 35.6673 279.843L33.5406 276.411C27.9009 267.326 30.2443 255.677 38.7622 250.378L56.2181 239.544L78.7679 275.864Z" fill="white"/>
<path d="M61.6438 287.223L79.0998 276.389C79.2359 276.301 79.3325 276.163 79.3693 276.005C79.4061 275.847 79.3802 275.681 79.2972 275.542L56.7474 239.221C56.6582 239.082 56.5196 238.983 56.3597 238.943C56.2019 238.91 56.0372 238.939 55.9001 239.024L38.4442 249.858C36.3296 251.189 34.5131 252.943 33.1088 255.009C31.7045 257.076 30.7427 259.411 30.2838 261.867C29.2696 267.002 30.2623 272.332 33.0576 276.758L35.1892 280.175C37.1891 283.492 40.1061 286.158 43.5882 287.852C47.0702 289.547 50.9684 290.197 54.8118 289.724C57.238 289.373 59.5646 288.521 61.6438 287.223ZM77.93 275.662L60.9562 286.196C52.7225 291.29 41.6076 288.321 36.1405 279.524L34.0183 276.102C31.395 271.942 30.4574 266.938 31.3967 262.111C31.8304 259.817 32.7345 257.637 34.052 255.71C35.3694 253.782 37.0718 252.148 39.0519 250.911L56.0257 240.377L77.93 275.662Z" fill="#404CA0"/>
<path d="M56.2182 239.544L78.7679 275.864C92.1906 267.642 108.001 264.204 123.626 266.111L148.965 268.572L93.1154 178.77L84.8616 203.67C79.6371 218.519 69.5418 231.162 56.2182 239.544Z" fill="#FDEFE3"/>
<path d="M149.479 268.894C149.538 268.796 149.57 268.684 149.57 268.569C149.571 268.455 149.54 268.342 149.481 268.244L93.6447 178.448C93.5811 178.348 93.4911 178.268 93.3847 178.217C93.2783 178.165 93.1597 178.145 93.0422 178.157C92.9285 178.176 92.8218 178.224 92.7327 178.297C92.6437 178.37 92.5754 178.465 92.5346 178.573L84.2856 203.459C79.1345 218.193 69.1264 230.738 55.9046 239.033C55.8351 239.075 55.7747 239.13 55.727 239.196C55.6792 239.262 55.6451 239.336 55.6267 239.415C55.6083 239.494 55.606 239.576 55.6198 239.656C55.6336 239.736 55.6634 239.812 55.7073 239.88L78.257 276.201C78.3468 276.335 78.4835 276.431 78.6402 276.47C78.7183 276.49 78.7998 276.495 78.8797 276.483C78.9596 276.47 79.0361 276.442 79.1043 276.398C92.3997 268.221 108.082 264.81 123.573 266.727L148.903 269.192L149.052 269.19C149.141 269.176 149.226 269.142 149.299 269.091C149.373 269.04 149.434 268.972 149.479 268.894ZM78.9698 275.026L57.0654 239.741C70.2733 231.297 80.2656 218.665 85.4422 203.868L93.2999 180.223L147.791 267.859L123.684 265.481C117.505 264.765 111.26 264.835 105.099 265.688C95.8423 266.983 86.9498 270.161 78.9698 275.026Z" fill="#000101"/>
<path d="M56.2182 239.544L78.7679 275.864C92.1906 267.642 108.001 264.204 123.626 266.111L148.965 268.572L93.1154 178.77L84.8616 203.67C79.6371 218.519 69.5418 231.162 56.2182 239.544Z" fill="white"/>
<path d="M149.479 268.894C149.538 268.796 149.57 268.684 149.57 268.569C149.571 268.455 149.54 268.342 149.481 268.244L93.6447 178.448C93.5811 178.348 93.4911 178.268 93.3847 178.217C93.2783 178.165 93.1597 178.145 93.0422 178.157C92.9285 178.176 92.8218 178.224 92.7327 178.297C92.6437 178.37 92.5754 178.465 92.5346 178.573L84.2856 203.459C79.1345 218.193 69.1264 230.738 55.9046 239.033C55.8351 239.075 55.7747 239.13 55.727 239.196C55.6792 239.262 55.6451 239.336 55.6267 239.415C55.6083 239.494 55.606 239.576 55.6198 239.656C55.6336 239.736 55.6634 239.812 55.7073 239.88L78.257 276.201C78.3468 276.335 78.4835 276.431 78.6402 276.47C78.7183 276.49 78.7998 276.495 78.8797 276.483C78.9596 276.47 79.0361 276.442 79.1043 276.398C92.3997 268.221 108.082 264.81 123.573 266.727L148.903 269.192L149.052 269.19C149.141 269.176 149.226 269.142 149.299 269.091C149.373 269.04 149.434 268.972 149.479 268.894ZM78.9698 275.026L57.0654 239.741C70.2733 231.297 80.2656 218.665 85.4422 203.868L93.2999 180.223L147.791 267.859L123.684 265.481C117.505 264.765 111.26 264.835 105.099 265.688C95.8423 266.983 86.9498 270.161 78.9698 275.026Z" fill="#404CA0"/>
<path d="M108.572 231.604C92.5229 206.193 86.7519 181.021 95.6825 175.381C104.613 169.74 124.863 185.767 140.913 211.178C156.962 236.588 162.733 261.76 153.803 267.401C144.872 273.041 124.622 257.015 108.572 231.604Z" fill="white"/>
<path d="M154.147 267.948C155.21 267.225 156.116 266.294 156.811 265.211C157.506 264.129 157.975 262.917 158.19 261.649C160.66 251.016 153.991 230.666 141.621 211.013C125.182 184.908 104.92 169.005 95.4997 174.816C94.4363 175.54 93.53 176.471 92.8352 177.553C92.1404 178.636 91.6715 179.847 91.4564 181.116C88.9907 191.758 95.6455 212.103 108.025 231.751C122.832 255.266 140.759 270.548 151.05 269.104C152.151 268.937 153.205 268.543 154.147 267.948ZM140.581 211.673C152.802 231.06 159.393 251.031 156.989 261.366C156.809 262.476 156.408 263.539 155.807 264.491C155.207 265.442 154.421 266.263 153.497 266.904C152.679 267.407 151.763 267.73 150.811 267.852C141.152 269.213 123.409 253.878 109.038 231.058C96.8266 211.666 90.2257 191.7 92.6393 181.361C92.8148 180.251 93.2141 179.188 93.8128 178.237C94.4115 177.285 95.1971 176.466 96.1221 175.827C96.9429 175.322 97.8617 174.998 98.8176 174.875C108.494 173.551 126.238 188.886 140.581 211.673Z" fill="#404CA0"/>
<path d="M135.17 214.166C147.707 234.167 152.818 253.513 146.556 257.375C140.293 261.237 125.081 248.144 112.554 228.139C100.026 208.133 94.9007 188.782 101.168 184.93C107.435 181.077 122.629 194.156 135.17 214.166Z" fill="#404CA0"/>
<mask id="mask1_5_270" style="mask-type:luminance" maskUnits="userSpaceOnUse" x="98" y="184" width="52" height="75">
<path d="M135.17 214.166C147.707 234.167 152.818 253.513 146.556 257.375C140.293 261.237 125.081 248.144 112.554 228.139C100.026 208.133 94.9007 188.782 101.168 184.93C107.435 181.077 122.629 194.156 135.17 214.166Z" fill="white"/>
</mask>
<g mask="url(#mask1_5_270)">
<path d="M124.056 221.668C136.261 241.144 141.213 259.987 135.149 263.731C129.085 267.475 114.245 254.749 102.035 235.263C89.8257 215.777 84.8782 196.944 90.9423 193.2C97.0064 189.456 111.846 202.182 124.056 221.668Z" fill="#404CA0"/>
<path d="M99.1368 224.763L110.971 217.508C115.796 214.542 122.683 216.88 126.342 222.718C129.992 228.561 129.07 235.697 124.212 238.667L112.378 245.922L99.1368 224.763Z" fill="white"/>
<path d="M112.7 246.452L124.53 239.187C125.628 238.497 126.577 237.593 127.32 236.529C128.063 235.466 128.586 234.264 128.856 232.996C129.621 229.328 128.899 225.507 126.848 222.372C123.021 216.255 115.726 213.788 110.639 216.96L98.8098 224.225C98.7394 224.265 98.678 224.32 98.6294 224.385C98.5809 224.45 98.546 224.524 98.5272 224.603C98.5084 224.683 98.5063 224.766 98.521 224.846C98.5356 224.927 98.5667 225.004 98.6124 225.072L111.853 246.231C111.915 246.333 112.006 246.413 112.115 246.463C112.223 246.512 112.343 246.528 112.461 246.508C112.544 246.511 112.627 246.491 112.7 246.452ZM111.289 218.028C115.831 215.244 122.34 217.496 125.817 223.05C127.687 225.901 128.353 229.377 127.67 232.717C127.43 233.827 126.973 234.878 126.325 235.81C125.677 236.742 124.851 237.536 123.894 238.148L112.58 245.085L99.984 224.961L111.289 218.028Z" fill="#404CA0"/>
<path d="M123.966 225.939C123.363 224.953 122.981 223.848 122.846 222.701C122.712 221.553 122.828 220.39 123.187 219.292C124.773 220.191 126.069 221.524 126.924 223.135C128.058 225.074 128.546 227.325 128.315 229.559C127.377 229.293 126.505 228.834 125.756 228.21C125.007 227.587 124.398 226.813 123.966 225.939Z" fill="white"/>
<path d="M128.67 230.061C128.739 230.012 128.796 229.949 128.839 229.877C128.882 229.804 128.91 229.724 128.921 229.64C129.162 227.274 128.652 224.891 127.462 222.831C126.547 221.119 125.163 219.703 123.472 218.75C123.398 218.709 123.315 218.685 123.231 218.68C123.146 218.674 123.061 218.687 122.982 218.718C122.901 218.744 122.827 218.787 122.764 218.845C122.702 218.903 122.653 218.974 122.621 219.052C122.223 220.237 122.089 221.495 122.228 222.737C122.368 223.979 122.777 225.175 123.428 226.242C123.904 227.191 124.574 228.03 125.393 228.706C126.213 229.381 127.164 229.878 128.187 230.165L128.397 230.169C128.496 230.158 128.591 230.121 128.67 230.061ZM124.495 225.64C123.535 224.005 123.195 222.079 123.535 220.214C124.731 221.065 125.716 222.18 126.413 223.472C127.339 225.089 127.817 226.924 127.795 228.788C126.398 228.153 125.253 227.07 124.54 225.71L124.495 225.64Z" fill="#404CA0"/>
</g>
<path d="M60.0163 237.045L82.4758 273.71L78.7515 275.733L56.2181 239.544L60.0163 237.045Z" fill="white"/>
<path d="M79.0277 276.238L82.7614 274.21C82.8335 274.171 82.8969 274.118 82.9479 274.054C82.9988 273.99 83.0362 273.916 83.0579 273.837C83.0808 273.755 83.0864 273.67 83.0742 273.586C83.062 273.502 83.0323 273.421 82.9871 273.349L60.5275 236.684C60.4831 236.615 60.425 236.554 60.3568 236.507C60.2886 236.46 60.2116 236.428 60.1304 236.411C60.0506 236.392 59.9677 236.39 59.887 236.405C59.8063 236.419 59.7295 236.45 59.6614 236.496L55.8678 239.004C55.733 239.092 55.6385 239.229 55.605 239.387C55.5715 239.544 55.6018 239.708 55.6893 239.843L78.2181 276.023C78.2789 276.125 78.3684 276.207 78.4756 276.259C78.5827 276.311 78.7028 276.33 78.8207 276.314C78.8943 276.304 78.9649 276.278 79.0277 276.238ZM59.8324 237.92L81.629 273.489L78.9715 274.933L57.0654 239.741L59.8324 237.92Z" fill="#404CA0"/>
<path d="M150.179 158.782L149.045 179.942L144.785 176.094L139.676 191.336L141.054 167.707L145.362 170.953L150.179 158.782Z" fill="white"/>
<path d="M140.266 191.529L145.069 177.174L148.635 180.393C148.721 180.472 148.827 180.525 148.942 180.546C149.056 180.567 149.174 180.555 149.283 180.512C149.391 180.467 149.483 180.393 149.55 180.297C149.618 180.201 149.656 180.089 149.662 179.972L150.786 158.816C150.795 158.67 150.751 158.525 150.664 158.408C150.576 158.291 150.449 158.209 150.306 158.176C150.165 158.14 150.016 158.154 149.885 158.217C149.754 158.279 149.649 158.386 149.589 158.519L145.076 169.943L141.433 167.167C141.345 167.1 141.241 167.059 141.131 167.048C141.022 167.037 140.911 167.056 140.812 167.104C140.711 167.15 140.625 167.222 140.563 167.313C140.5 167.405 140.464 167.511 140.457 167.622L139.083 191.26C139.075 191.408 139.121 191.554 139.213 191.67C139.305 191.786 139.436 191.864 139.582 191.891C139.648 191.905 139.715 191.908 139.782 191.899C139.888 191.884 139.988 191.843 140.073 191.778C140.158 191.713 140.224 191.627 140.266 191.529ZM144.975 171.451C145.05 171.509 145.137 171.548 145.23 171.566C145.323 171.584 145.419 171.58 145.511 171.554C145.602 171.529 145.687 171.483 145.757 171.419C145.827 171.356 145.881 171.276 145.914 171.187L149.345 162.516L148.479 178.637L145.176 175.652C145.101 175.582 145.01 175.532 144.911 175.506C144.812 175.481 144.707 175.481 144.608 175.507C144.511 175.534 144.421 175.585 144.348 175.654C144.274 175.724 144.218 175.81 144.185 175.906L140.546 186.784L141.594 168.909L144.975 171.451Z" fill="#404CA0"/>
<path d="M193.665 228.267L174.24 232.849L176.589 227.973L161.463 227.395L183.187 222.387L181.391 227.137L193.665 228.267Z" fill="white"/>
<path d="M174.384 233.44L193.8 228.863C193.943 228.829 194.069 228.745 194.156 228.627C194.244 228.509 194.287 228.364 194.279 228.217C194.265 228.072 194.202 227.937 194.1 227.834C193.998 227.73 193.863 227.666 193.718 227.651L182.247 226.601L183.8 222.58C183.841 222.477 183.853 222.364 183.833 222.255C183.814 222.146 183.764 222.044 183.69 221.961C183.616 221.877 183.521 221.815 183.414 221.78C183.308 221.745 183.195 221.74 183.085 221.763L161.367 226.781C161.221 226.813 161.092 226.897 161.004 227.018C160.917 227.139 160.877 227.288 160.892 227.437C160.908 227.584 160.975 227.721 161.084 227.823C161.192 227.924 161.333 227.983 161.481 227.989L175.645 228.54L173.703 232.573C173.655 232.677 173.638 232.793 173.651 232.907C173.665 233.021 173.71 233.129 173.78 233.219C173.847 233.3 173.933 233.363 174.03 233.401C174.128 233.44 174.233 233.453 174.337 233.439L174.384 233.44ZM182.242 223.221L180.848 226.899C180.815 226.989 180.803 227.085 180.813 227.181C180.823 227.277 180.854 227.369 180.904 227.451C180.955 227.531 181.024 227.597 181.105 227.645C181.186 227.693 181.277 227.72 181.371 227.726L189.865 228.531L175.378 231.981L177.164 228.278C177.209 228.185 177.23 228.082 177.225 227.979C177.221 227.876 177.19 227.776 177.137 227.688C177.085 227.601 177.012 227.529 176.924 227.477C176.837 227.426 176.738 227.397 176.637 227.394L166.112 226.992L182.242 223.221Z" fill="#404CA0"/>
<path d="M201.608 176.445L177.029 200.368L176.179 191.125L153.378 203.645L180.963 177.046L182.522 185.637L201.608 176.445Z" fill="white"/>
<path d="M177.451 200.815L202.025 176.906C202.128 176.802 202.191 176.665 202.204 176.52C202.217 176.374 202.179 176.228 202.095 176.108C202.013 175.988 201.89 175.901 201.749 175.865C201.608 175.828 201.458 175.843 201.328 175.907L182.967 184.752L181.554 176.949C181.534 176.84 181.486 176.738 181.413 176.655C181.34 176.571 181.247 176.509 181.142 176.474C181.036 176.438 180.923 176.432 180.814 176.455C180.705 176.479 180.604 176.532 180.522 176.608L152.932 203.221C152.827 203.324 152.762 203.461 152.749 203.607C152.737 203.753 152.776 203.899 152.862 204.019C152.95 204.139 153.078 204.224 153.224 204.256C153.37 204.289 153.522 204.268 153.653 204.197L175.675 192.107L176.443 200.427C176.453 200.542 176.495 200.651 176.563 200.743C176.632 200.835 176.725 200.906 176.831 200.948C176.929 200.981 177.033 200.991 177.135 200.977C177.254 200.957 177.365 200.9 177.451 200.815ZM175.885 190.582L157.12 200.883L180.568 178.278L181.912 185.743C181.928 185.836 181.966 185.924 182.023 186C182.079 186.075 182.152 186.137 182.236 186.179C182.319 186.226 182.413 186.252 182.509 186.252C182.605 186.253 182.699 186.23 182.783 186.184L198.502 178.671L177.551 199.11L176.824 191.141C176.814 191.039 176.779 190.941 176.724 190.854C176.669 190.768 176.594 190.696 176.505 190.644C176.388 190.587 176.257 190.565 176.128 190.582C176.046 190.555 175.96 190.549 175.876 190.563L175.885 190.582Z" fill="#404CA0"/>
</g>
<defs>
<clipPath id="clip0_5_270">
<rect width="282.901" height="375.289" fill="white" transform="translate(226.789 0.801208)"/>
</clipPath>
<clipPath id="clip1_5_270">
<rect width="201.476" height="157.53" fill="white" transform="matrix(-0.902235 0.431245 0.431245 0.902235 181.779 133.53)"/>
</clipPath>
</defs>
</svg>
