<svg width="968" height="220" viewBox="0 0 968 220" fill="none" xmlns="http://www.w3.org/2000/svg">
<path d="M37.6 220C30.7 220 23.6 219.4 16.3 218.2C9 217.1 3.65 216.1 0.250001 215.2L1.15 175.15C4.05 175.75 7.35 176.55 11.05 177.55C14.85 178.55 19.05 179.05 23.65 179.05C33.75 179.05 40.55 176.4 44.05 171.1C47.55 165.7 49.3 157 49.3 145V0.0999851H93.1V156.7C93.1 170.5 91.6 182.1 88.6 191.5C85.6 200.9 80.1 208 72.1 212.8C64.1 217.6 52.6 220 37.6 220ZM199.103 220C183.903 220 170.653 216.75 159.353 210.25C148.153 203.75 139.453 194.55 133.253 182.65C127.153 170.75 124.103 156.65 124.103 140.35C124.103 124.05 127.153 109.8 133.253 97.6C139.453 85.4 148.153 75.9 159.353 69.1C170.653 62.3 183.953 58.9 199.253 58.9C214.553 58.9 227.803 62.25 239.003 68.95C250.203 75.55 258.853 84.95 264.953 97.15C271.053 109.35 274.103 123.75 274.103 140.35C274.103 155.95 271.103 169.75 265.103 181.75C259.203 193.65 250.653 203 239.453 209.8C228.353 216.6 214.903 220 199.103 220ZM199.253 187.45C206.953 187.45 213.153 185.2 217.853 180.7C222.553 176.2 225.953 170.3 228.053 163C230.153 155.6 231.203 147.55 231.203 138.85C231.203 130.65 230.253 122.9 228.353 115.6C226.453 108.3 223.153 102.4 218.453 97.9C213.753 93.4 207.353 91.15 199.253 91.15C191.553 91.15 185.303 93.3 180.503 97.6C175.803 101.8 172.353 107.55 170.153 114.85C167.953 122.05 166.853 130.05 166.853 138.85C166.853 146.95 167.853 154.75 169.853 162.25C171.853 169.65 175.203 175.7 179.903 180.4C184.603 185.1 191.053 187.45 199.253 187.45ZM304.462 217V61.9H346.312V217H304.462ZM304.012 39.7V0.249992H346.612V39.7H304.012ZM384.871 217V61.9H427.921V83.8C430.321 80 433.421 76.35 437.221 72.85C441.121 69.25 446.021 66.3 451.921 64C457.821 61.7 464.821 60.55 472.921 60.55C482.421 60.55 491.271 62.4 499.471 66.1C507.771 69.8 514.471 75.65 519.571 83.65C524.671 91.55 527.221 101.9 527.221 114.7V217H483.421V120.1C483.421 111.7 480.921 105.4 475.921 101.2C470.921 97 464.821 94.9 457.621 94.9C452.821 94.9 448.171 95.75 443.671 97.45C439.271 99.15 435.671 101.7 432.871 105.1C430.071 108.5 428.671 112.7 428.671 117.7V217H384.871ZM722.629 220C701.529 220 684.629 216.5 671.929 209.5C659.229 202.4 650.029 192.35 644.329 179.35C638.729 166.35 635.929 150.85 635.929 132.85V0.0999851H680.479V136.15C680.479 152.35 684.379 164.2 692.179 171.7C699.979 179.1 710.129 182.8 722.629 182.8C730.929 182.8 738.279 181.2 744.679 178C751.079 174.7 756.079 169.65 759.679 162.85C763.379 155.95 765.229 147.05 765.229 136.15V0.0999851H809.479V134.35C809.479 151.85 806.629 167.05 800.929 179.95C795.229 192.75 785.979 202.65 773.179 209.65C760.479 216.55 743.629 220 722.629 220ZM909.869 220C899.069 220 888.669 218.25 878.669 214.75C868.769 211.15 860.319 205.55 853.319 197.95C846.419 190.25 842.069 180.3 840.269 168.1H878.069C879.469 173.6 881.869 177.95 885.269 181.15C888.769 184.35 892.719 186.65 897.119 188.05C901.519 189.35 905.719 190 909.719 190C918.119 190 924.869 188.7 929.969 186.1C935.169 183.4 937.769 179.3 937.769 173.8C937.769 169.6 936.219 166.25 933.119 163.75C930.119 161.25 925.119 159.35 918.119 158.05L890.819 152.35C877.119 149.45 866.069 144.55 857.669 137.65C849.369 130.65 845.169 120.75 845.069 107.95C844.969 98.65 847.369 90.3 852.269 82.9C857.269 75.5 864.619 69.65 874.319 65.35C884.119 61.05 896.069 58.9 910.169 58.9C929.269 58.9 944.519 63.1 955.919 71.5C967.419 79.9 973.269 91.75 973.469 107.05H936.869C935.769 101.05 932.769 96.45 927.869 93.25C923.069 89.95 916.969 88.3 909.569 88.3C902.069 88.3 895.869 89.65 890.969 92.35C886.069 95.05 883.619 99.15 883.619 104.65C883.619 108.75 885.619 112 889.619 114.4C893.619 116.7 899.819 118.7 908.219 120.4L933.419 126.1C942.119 128.2 949.169 131.1 954.569 134.8C960.069 138.4 964.319 142.35 967.319 146.65C970.319 150.95 972.369 155.3 973.469 159.7C974.669 164 975.269 167.9 975.269 171.4C975.269 181.7 972.519 190.5 967.019 197.8C961.519 205 953.869 210.5 944.069 214.3C934.269 218.1 922.869 220 909.869 220Z" fill="#F76B1C" fill-opacity="0.1"/>
</svg>
