<svg width="976" height="338" viewBox="0 0 976 338" fill="none" xmlns="http://www.w3.org/2000/svg">
<g clip-path="url(#clip0_23_9)">
<path d="M315.456 321.365V171.693L267.912 162.992V326.808L315.456 321.365Z" fill="white" stroke="#0C3EAD" stroke-width="1.2" stroke-linecap="round" stroke-linejoin="round"/>
<path d="M329.208 154.549C329.208 154.549 349.786 153.238 349.786 166.965C349.786 181.328 329.208 179.362 329.208 179.362L327.019 165.455L329.208 154.549Z" fill="#F76B1C" stroke="#0C3EAD" stroke-width="1.2" stroke-linecap="round" stroke-linejoin="round"/>
<path d="M247.712 154.549L223.194 166.965L247.712 179.362C247.712 179.362 255.156 175.507 255.156 167.859C255.156 160.211 247.712 154.549 247.712 154.549Z" fill="white" stroke="#0C3EAD" stroke-width="1.2" stroke-linecap="round" stroke-linejoin="round"/>
<path d="M233.165 161.919C233.165 161.919 236.707 167.144 233.165 171.693L223.214 166.965L233.165 161.919Z" fill="#0C3EAD" stroke="#0C3EAD" stroke-width="1.2" stroke-linecap="round" stroke-linejoin="round"/>
<path d="M329.208 179.362H313.844C315.943 175.578 316.942 171.285 316.73 166.965C316.788 162.654 315.798 158.394 313.844 154.549H329.168C329.168 154.549 333.348 158.045 333.348 166.965C333.6 171.473 332.12 175.907 329.208 179.362Z" fill="white" stroke="#0C3EAD" stroke-width="1.2" stroke-linecap="round" stroke-linejoin="round"/>
<path d="M319.815 179.401H247.712C249.809 175.609 250.808 171.311 250.598 166.985C250.642 162.707 249.652 158.483 247.712 154.668H319.815C319.815 154.668 324.014 158.144 324.014 167.064C324.232 171.559 322.731 175.97 319.815 179.401Z" fill="white" stroke="#0C3EAD" stroke-width="1.2" stroke-linecap="round" stroke-linejoin="round"/>
<path d="M250.16 161.919H323.337" stroke="#0C3EAD" stroke-width="1.2" stroke-linecap="round" stroke-linejoin="round"/>
<path d="M250.439 170.243H323.337" stroke="#0C3EAD" stroke-width="1.2" stroke-linecap="round" stroke-linejoin="round"/>
<path d="M269.345 159.555V146.92C269.345 145.673 269.839 144.476 270.718 143.591C271.598 142.705 272.793 142.202 274.042 142.192C275.295 142.197 276.494 142.698 277.378 143.584C278.262 144.47 278.758 145.67 278.758 146.92V159.555C278.761 160.175 278.641 160.789 278.405 161.363C278.169 161.936 277.822 162.458 277.384 162.897C276.946 163.336 276.425 163.685 275.851 163.923C275.278 164.161 274.663 164.283 274.042 164.283C273.419 164.286 272.802 164.165 272.226 163.929C271.65 163.692 271.127 163.344 270.687 162.904C270.246 162.465 269.898 161.942 269.661 161.367C269.423 160.793 269.303 160.177 269.305 159.555H269.345Z" fill="white" stroke="#0C3EAD" stroke-width="1.2" stroke-linecap="round" stroke-linejoin="round"/>
<path d="M278.798 159.555V146.92C278.794 145.747 279.227 144.614 280.012 143.742C280.454 143.252 280.995 142.861 281.598 142.594C282.202 142.327 282.855 142.19 283.515 142.192C284.308 142.185 285.09 142.38 285.787 142.759C286.483 143.138 287.071 143.688 287.495 144.357C288.007 145.114 288.277 146.007 288.271 146.92V159.555C288.266 160.807 287.765 162.007 286.878 162.893C285.991 163.778 284.789 164.278 283.535 164.283C282.912 164.286 282.295 164.165 281.719 163.929C281.143 163.692 280.62 163.344 280.18 162.904C279.739 162.465 279.391 161.942 279.153 161.367C278.916 160.793 278.796 160.177 278.798 159.555Z" fill="white" stroke="#0C3EAD" stroke-width="1.2" stroke-linecap="round" stroke-linejoin="round"/>
<path d="M288.271 159.555V146.92C288.269 146.3 288.389 145.686 288.625 145.112C288.86 144.539 289.207 144.017 289.646 143.578C290.084 143.139 290.605 142.79 291.178 142.552C291.752 142.314 292.367 142.192 292.988 142.192C294.244 142.192 295.449 142.69 296.337 143.577C297.225 144.464 297.724 145.666 297.724 146.92V159.555C297.724 160.348 297.523 161.127 297.141 161.822C296.758 162.517 296.206 163.103 295.535 163.528C294.771 164.005 293.889 164.26 292.988 164.263C291.737 164.257 290.538 163.765 289.644 162.893C288.763 162.005 288.269 160.805 288.271 159.555Z" fill="white" stroke="#0C3EAD" stroke-width="1.2" stroke-linecap="round" stroke-linejoin="round"/>
<path d="M297.724 159.555V146.92C297.722 146.3 297.842 145.686 298.078 145.112C298.313 144.539 298.66 144.017 299.099 143.578C299.537 143.139 300.058 142.79 300.631 142.552C301.205 142.314 301.82 142.192 302.441 142.192C303.697 142.192 304.902 142.69 305.79 143.577C306.678 144.464 307.177 145.666 307.177 146.92V159.555C307.177 160.348 306.976 161.127 306.594 161.822C306.211 162.517 305.659 163.103 304.988 163.528C304.224 164.005 303.342 164.26 302.441 164.263C301.19 164.257 299.991 163.765 299.097 162.893C298.216 162.005 297.722 160.805 297.724 159.555Z" fill="white" stroke="#0C3EAD" stroke-width="1.2" stroke-linecap="round" stroke-linejoin="round"/>
<path d="M315.456 198.512V177.137C315.456 175.693 314.882 174.308 313.859 173.287C312.837 172.267 311.45 171.693 310.003 171.693C309.287 171.691 308.578 171.83 307.917 172.103C307.255 172.375 306.654 172.777 306.149 173.283C305.643 173.789 305.244 174.39 304.973 175.052C304.702 175.713 304.565 176.422 304.57 177.137V198.512" fill="white"/>
<path d="M315.456 198.512V177.137C315.456 175.693 314.882 174.308 313.859 173.287C312.837 172.267 311.45 171.693 310.003 171.693C309.287 171.691 308.578 171.83 307.917 172.103C307.255 172.375 306.654 172.777 306.149 173.283C305.643 173.789 305.244 174.39 304.973 175.052C304.702 175.713 304.565 176.422 304.57 177.137V198.512" stroke="#0C3EAD" stroke-width="1.2" stroke-linecap="round" stroke-linejoin="round"/>
<ellipse cx="288.5" cy="277" rx="62.5" ry="28" fill="#F76B1C"/>
</g>
<g clip-path="url(#clip1_23_9)">
<path d="M437.79 44.5828H520.188" stroke="#3F4DA1" stroke-width="1.2" stroke-linecap="round" stroke-linejoin="round"/>
<path d="M443.742 8.62357C443.742 8.62357 444.09 44.395 479.175 44.395C514.259 44.395 514.189 8.62357 514.189 8.62357" stroke="#3F4DA1" stroke-width="1.2" stroke-linecap="round" stroke-linejoin="round"/>
<path d="M484.941 38.574H473.037V50.5917H484.941V38.574Z" fill="white" stroke="#3F4DA1" stroke-width="1.2" stroke-linecap="round" stroke-linejoin="round"/>
<path d="M449.694 0.408325H437.79V12.426H449.694V0.408325Z" fill="white" stroke="#3F4DA1" stroke-width="1.2" stroke-linecap="round" stroke-linejoin="round"/>
<path d="M520.188 0.408325H508.284V12.426H520.188V0.408325Z" fill="white" stroke="#3F4DA1" stroke-width="1.2" stroke-linecap="round" stroke-linejoin="round"/>
<path d="M438.766 48.9017C441.18 48.9017 443.137 46.926 443.137 44.4889C443.137 42.0518 441.18 40.0762 438.766 40.0762C436.352 40.0762 434.395 42.0518 434.395 44.4889C434.395 46.926 436.352 48.9017 438.766 48.9017Z" fill="#F76B1C" stroke="#3F4DA1" stroke-width="1.2" stroke-linecap="round" stroke-linejoin="round"/>
<path d="M522.234 48.9017C524.648 48.9017 526.605 46.926 526.605 44.4889C526.605 42.0518 524.648 40.0762 522.234 40.0762C519.82 40.0762 517.863 42.0518 517.863 44.4889C517.863 46.926 519.82 48.9017 522.234 48.9017Z" fill="#F76B1C" stroke="#3F4DA1" stroke-width="1.2" stroke-linecap="round" stroke-linejoin="round"/>
</g>
<circle cx="523.226" cy="131.226" r="5.22555" fill="#F76B1C"/>
<circle cx="523.226" cy="152.128" r="5.22555" fill="#F76B1C"/>
<circle cx="523.226" cy="173.03" r="5.22555" fill="#F76B1C"/>
<circle cx="554.579" cy="131.226" r="5.22555" fill="#F76B1C"/>
<circle cx="554.579" cy="152.128" r="5.22555" fill="#F76B1C"/>
<circle cx="554.579" cy="173.03" r="5.22555" fill="#F76B1C"/>
<circle cx="585.932" cy="131.226" r="5.22555" fill="#F76B1C"/>
<circle cx="585.932" cy="152.128" r="5.22555" fill="#F76B1C"/>
<circle cx="585.932" cy="173.03" r="5.22555" fill="#F76B1C"/>
<path d="M101.1 209.7C101.1 223.5 99.6 235.1 96.6 244.5C93.6 253.9 88.1 261 80.1 265.8C72.1 270.6 60.6 273 45.6 273C38.7 273 31.6 272.4 24.3 271.2C17 270.1 11.65 269.1 8.25 268.2L9.15 228.15C12.05 228.75 15.35 229.55 19.05 230.55C22.85 231.55 27.05 232.05 31.65 232.05C41.75 232.05 48.55 229.4 52.05 224.1C55.55 218.7 57.3 210 57.3 198V53.1H101.1V209.7ZM206.053 273C190.853 273 177.603 269.75 166.303 263.25C155.103 256.75 146.403 247.55 140.203 235.65C134.103 223.75 131.053 209.65 131.053 193.35C131.053 177.05 134.103 162.8 140.203 150.6C146.403 138.4 155.103 128.9 166.303 122.1C177.603 115.3 190.903 111.9 206.203 111.9C221.503 111.9 234.753 115.25 245.953 121.95C257.153 128.55 265.803 137.95 271.903 150.15C278.003 162.35 281.053 176.75 281.053 193.35C281.053 208.95 278.053 222.75 272.053 234.75C266.153 246.65 257.603 256 246.403 262.8C235.303 269.6 221.853 273 206.053 273ZM206.203 240.45C213.903 240.45 220.103 238.2 224.803 233.7C229.503 229.2 232.903 223.3 235.003 216C237.203 208.6 238.303 200.55 238.303 191.85C238.303 183.65 237.303 175.9 235.303 168.6C233.403 161.3 230.103 155.4 225.403 150.9C220.703 146.4 214.303 144.15 206.203 144.15C198.503 144.15 192.253 146.3 187.453 150.6C182.753 154.8 179.303 160.55 177.103 167.85C174.903 175.05 173.803 183.05 173.803 191.85C173.803 199.95 174.803 207.75 176.803 215.25C178.803 222.65 182.153 228.7 186.853 233.4C191.553 238.1 198.003 240.45 206.203 240.45ZM354.354 114.9V270H312.504V114.9H354.354ZM354.804 53.25V92.7H312.204V53.25H354.804ZM394.922 270V114.9H437.972V136.8C440.372 133 443.472 129.35 447.272 125.85C451.172 122.25 456.072 119.3 461.972 117C467.872 114.7 474.872 113.55 482.972 113.55C492.472 113.55 501.322 115.4 509.522 119.1C517.822 122.8 524.522 128.65 529.622 136.65C534.722 144.55 537.272 154.9 537.272 167.7V270H493.472V173.1C493.472 164.7 490.972 158.4 485.972 154.2C480.972 150 474.872 147.9 467.672 147.9C462.872 147.9 458.222 148.75 453.722 150.45C449.322 152.15 445.722 154.7 442.922 158.1C440.122 161.5 438.722 165.7 438.722 170.7V270H394.922ZM815.428 187.35C815.428 204.85 812.578 220.05 806.878 232.95C801.178 245.75 791.928 255.65 779.128 262.65C766.428 269.55 749.578 273 728.578 273C707.478 273 690.578 269.5 677.878 262.5C665.178 255.4 655.978 245.35 650.278 232.35C644.678 219.35 641.878 203.85 641.878 185.85V53.1H686.428V189.15C686.428 205.35 690.328 217.2 698.128 224.7C705.928 232.1 716.078 235.8 728.578 235.8C736.878 235.8 744.228 234.2 750.628 231C757.028 227.7 762.028 222.65 765.628 215.85C769.328 208.95 771.178 200.05 771.178 189.15V53.1H815.428V187.35ZM914.768 273C903.968 273 893.568 271.25 883.568 267.75C873.568 264.15 865.118 258.55 858.218 250.95C851.318 243.25 846.918 233.3 845.018 221.1H882.968C884.268 226.6 886.618 230.95 890.018 234.15C893.518 237.35 897.468 239.65 901.868 241.05C906.268 242.35 910.468 243 914.468 243C922.868 243 929.618 241.7 934.718 239.1C939.918 236.4 942.518 232.3 942.518 226.8C942.518 222.6 940.968 219.25 937.868 216.75C934.868 214.25 929.868 212.35 922.868 211.05L895.568 205.35C881.868 202.45 870.868 197.55 862.568 190.65C854.268 183.65 850.018 173.75 849.818 160.95C849.818 151.65 852.268 143.3 857.168 135.9C862.168 128.5 869.518 122.65 879.218 118.35C888.918 114.05 900.818 111.9 914.918 111.9C934.018 111.9 949.268 116.1 960.668 124.5C972.168 132.9 978.018 144.75 978.218 160.05H941.618C940.518 154.05 937.518 149.45 932.618 146.25C927.818 142.95 921.768 141.3 914.468 141.3C906.868 141.3 900.618 142.65 895.718 145.35C890.818 148.05 888.368 152.15 888.368 157.65C888.368 161.75 890.368 165 894.368 167.4C898.368 169.7 904.568 171.7 912.968 173.4L938.168 179.1C946.868 181.2 953.918 184.1 959.318 187.8C964.818 191.4 969.068 195.35 972.068 199.65C975.068 203.95 977.118 208.3 978.218 212.7C979.418 217 980.018 220.9 980.018 224.4C980.018 234.7 977.268 243.5 971.768 250.8C966.268 258 958.618 263.5 948.818 267.3C939.018 271.1 927.668 273 914.768 273Z" fill="#F76B1C" fill-opacity="0.1"/>
<defs>
<clipPath id="clip0_23_9">
<rect width="129" height="187" fill="white" transform="translate(222 141)"/>
</clipPath>
<clipPath id="clip1_23_9">
<rect width="95" height="53" fill="white" transform="translate(433 -1)"/>
</clipPath>
</defs>
</svg>
