<svg width="97" height="28" viewBox="0 0 97 28" fill="none" xmlns="http://www.w3.org/2000/svg">
<g clip-path="url(#clip0_6_282)">
<path d="M40.6275 18.9563C39.1921 18.3109 38.0244 17.671 37.1245 17.0367C36.087 16.3146 35.1533 15.4534 34.3493 14.477C33.6558 15.5136 32.6826 16.4026 31.43 17.144C30.4088 17.7535 29.1136 18.3568 27.5445 18.9538L26.2881 17.6768C27.4797 17.1893 28.4223 16.784 29.1159 16.4611C29.7835 16.1526 30.4242 15.7887 31.0314 15.3732C31.6735 14.946 32.2432 14.4183 32.7185 13.8102C33.168 13.2183 33.4826 12.5349 33.6401 11.8081L33.7676 11.0216H35.6107L35.446 11.8465C35.3672 12.2007 35.2638 12.5488 35.1366 12.8885C35.9998 14.0223 36.9667 14.9366 38.0374 15.6312C38.5928 15.99 39.1753 16.3048 39.7796 16.5727C40.4183 16.8593 41.1755 17.1609 42.051 17.4777L40.6275 18.9563ZM31.4875 14.5136H29.6809L28.0365 11.6803H29.7694L31.4875 14.5136ZM28.2581 10.6011L28.4406 9.05051H38.8575L39.0035 7.82554H29.3894L29.6079 6.28983H39.204L39.3687 5.07975H29.0948L29.2774 3.50745H39.6237C40.1716 3.50745 40.5791 3.64473 40.846 3.91928C41.113 4.19384 41.2161 4.59286 41.1555 5.11634L40.4802 10.6011H28.2581ZM39.3866 11.5519H41.1746L39.1675 14.5136H37.3071L39.3866 11.5519Z" fill="black"/>
<path d="M44.8231 8.66349C45.6715 7.98338 46.4645 7.23674 47.1947 6.43063C46.8787 5.49283 46.3801 4.43326 45.6989 3.25192H47.4504C47.7771 3.85638 48.0694 4.47885 48.3261 5.11635C48.8732 4.3609 49.2623 3.75762 49.4934 3.3065H51.0809C50.5002 4.55633 49.758 5.72414 48.8732 6.77983C49.1653 7.9376 49.3114 9.26078 49.3114 10.7493C49.3114 11.9071 49.2565 13.0649 49.1468 14.2227C49.6943 13.528 50.2387 12.7571 50.7801 11.9098C51.3066 11.0885 51.7846 10.2369 52.2116 9.35939H50.2051L50.3691 7.7505H52.4833L52.7383 5.53811C52.1058 5.6237 51.4369 5.69689 50.7318 5.75768L50.9175 4.25856C52.3401 4.09978 54.006 3.83804 55.9151 3.47334L55.7332 5.04564L54.2917 5.30118L53.9996 7.75112H55.7326L55.5469 9.36002H53.7954L53.7774 9.52438C54.4345 10.6151 55.0254 11.7445 55.5469 12.9065L54.1605 13.6564L53.8511 12.6876L53.5224 11.7734L52.7408 18.4446H51.2634L51.9566 12.4482C51.3847 13.5448 50.8312 14.4528 50.2961 15.1723L49.1288 14.4224C49.0434 15.349 48.9217 16.2815 48.7637 17.2197C48.6906 17.6588 48.5386 18.0123 48.3075 18.2803C48.1984 18.4104 48.0614 18.5141 47.9066 18.5837C47.7518 18.6533 47.5834 18.687 47.4138 18.6822C47.3283 18.6839 47.2427 18.6779 47.1582 18.6642C46.7823 18.6086 46.4102 18.5292 46.0442 18.4266C45.6979 18.3363 45.3569 18.2263 45.023 18.0973L45.2235 16.5802C45.5198 16.696 45.8249 16.7877 46.1358 16.8543C46.2328 16.8783 46.3543 16.9027 46.5003 16.9275C46.5635 16.946 46.6275 16.9611 46.6922 16.9728C46.767 16.9894 46.8433 16.9985 46.92 17.0001C47.1143 17.0001 47.2362 16.8909 47.2851 16.6714C47.5525 15.3552 47.7175 13.8621 47.7802 12.192C47.2203 12.8867 46.5331 13.6667 45.7187 14.5322L44.5861 13.5268C45.8387 12.2714 46.8909 10.9917 47.7425 9.6875C47.7177 9.12681 47.675 8.6149 47.6144 8.15179C47.1279 8.6393 46.6111 9.1206 46.064 9.59571L44.8231 8.66349ZM59.3451 17.1651C59.2358 18.1033 58.7858 18.5724 57.9953 18.5724C57.867 18.5684 57.739 18.5564 57.6122 18.5364C56.8947 18.4418 56.1906 18.2638 55.5141 18.0061L55.7511 16.4698C56.3 16.6785 56.8683 16.8319 57.4476 16.9275C57.5713 16.9517 57.6332 16.9641 57.6487 16.9641C57.6716 16.9675 57.695 16.964 57.716 16.9542C57.737 16.9444 57.7547 16.9287 57.7669 16.9089C57.7951 16.8381 57.8159 16.7645 57.8288 16.6894L59.4547 2.99576H61.0601L59.3451 17.1651ZM56.846 4.80561H58.3629L57.1375 14.8609H55.6236L56.846 4.80561Z" fill="black"/>
<path d="M65.1647 5.4277C65.0039 5.43698 64.8444 5.39532 64.7086 5.30862C64.6565 5.27351 64.6141 5.22575 64.5854 5.16978C64.5567 5.11381 64.5427 5.05146 64.5445 4.98857C64.5445 4.89099 64.587 4.75702 64.672 4.58666L65.4382 3.06894H67.2083L66.7887 3.9993H71.5865L71.3674 5.42584H69.2148C69.1367 5.85194 69.0334 6.273 68.9054 6.68678H71.6236L71.4379 8.13132H68.4096C69.4545 8.69463 70.4547 9.33743 71.4014 10.0541L70.2342 11.0781C69.4915 10.5298 69.017 10.1702 68.8107 9.99947C68.3849 9.69473 67.9896 9.42596 67.6248 9.19316C66.8702 10.1926 65.8849 11.0518 64.6689 11.7709L63.2826 10.7469C63.943 10.3876 64.5716 9.97264 65.1616 9.50638C65.6519 9.11422 66.0823 8.6522 66.439 8.13504H63.7777L63.9634 6.69051H67.1922C67.3486 6.28254 67.4646 5.86021 67.5388 5.42956L65.1647 5.4277ZM76.1472 18.6276H64.6906L65.4748 12.5573C65.5152 12.2077 65.6882 11.887 65.9581 11.6617C66.2365 11.4286 66.5901 11.3052 66.9527 11.3144H75.527C75.9289 11.3144 76.2452 11.4177 76.4758 11.6245C76.7065 11.8312 76.822 12.1178 76.8224 12.4841C76.8245 12.5759 76.8185 12.6676 76.8045 12.7583L76.1472 18.6276ZM66.6426 17.0919H74.5603L74.7064 15.7019H66.8067L66.6426 17.0919ZM75.0344 12.8501H67.1743L66.9917 14.2394H74.8729L75.0344 12.8501ZM77.9903 10.544H71.6595L72.3347 5.09588C72.383 4.70554 72.5288 4.4008 72.7723 4.18165C73.0157 3.96249 73.332 3.85292 73.7211 3.85292H77.406C77.8079 3.85292 78.1304 3.98999 78.3734 4.26414C78.4918 4.39457 78.5782 4.55092 78.6257 4.72073C78.6732 4.89055 78.6805 5.06913 78.6469 5.24225L77.9903 10.544ZM73.502 9.08152H76.5123L76.9134 5.31482H73.9594L73.502 9.08152Z" fill="black"/>
<path d="M86.9657 15.5196H83.4082L83.0802 18.6642H81.4562L82.314 10.291C82.3746 9.75344 82.5236 9.36951 82.7608 9.1392C82.9981 8.90888 83.3721 8.79311 83.8829 8.79187H87.7684C88.6567 8.79187 89.1007 9.19419 89.1003 9.99885C89.1024 10.1087 89.0964 10.2186 89.0823 10.3276L88.4801 17.0925C88.4071 17.6776 88.252 18.0911 88.0147 18.333C87.7775 18.5749 87.4035 18.6969 86.8927 18.6989C86.5199 18.6964 86.1477 18.6689 85.7786 18.6164C85.3776 18.5618 85.0737 18.4918 84.867 18.4062L84.9945 16.8525C85.6513 17.0232 86.1378 17.1084 86.4538 17.108C86.5999 17.108 86.7002 17.0776 86.7546 17.0168C86.8097 16.9548 86.8487 16.8221 86.8735 16.6143L86.9657 15.5196ZM88.097 7.54829C86.832 7.76785 85.2327 7.95062 83.2993 8.09658C83.0387 8.12612 82.7749 8.08833 82.5331 7.9868C82.3383 7.91131 82.1766 7.76885 82.0769 7.58488C82.018 7.47188 81.9866 7.34647 81.9853 7.21894C81.9853 6.951 82.1192 6.66466 82.387 6.35991C83.0435 5.61563 83.8825 4.50024 84.9041 3.01373H86.9292C86.5166 3.67243 86.0666 4.3307 85.5793 4.98857C85.2146 5.47608 84.8071 5.96978 84.357 6.4697C85.4897 6.40086 86.6169 6.2604 87.7319 6.04918L87.3308 4.2753H88.8998L89.9216 8.40732H88.2976L88.097 7.54829ZM87.1848 12.9233H83.6824L83.5524 14.0571H87.0919L87.1848 12.9233ZM87.4218 10.327H83.9559L83.8278 11.4607H87.3123L87.4218 10.327ZM96.0147 13.5634C95.3328 13.7966 94.6386 13.9919 93.9352 14.1482C92.9742 14.3678 92.1715 14.5332 91.527 14.6444L91.3259 16.4543C91.2652 16.7714 91.4113 16.93 91.7641 16.93H92.9864C93.5601 16.9255 94.1318 16.8611 94.6921 16.7377C95.2579 16.6222 95.8065 16.4346 96.3248 16.1795L96.0878 18.008C95.6065 18.2 95.1044 18.3349 94.5919 18.4099C93.9886 18.5079 93.3784 18.5569 92.7673 18.5563H91.0344C90.524 18.5563 90.15 18.4496 89.9123 18.2362C89.6746 18.0229 89.5558 17.7084 89.5558 17.2928C89.5541 17.1768 89.5603 17.0607 89.5744 16.9455L90.2675 10.5831H91.964L91.6904 13.0144C93.2126 12.7221 94.7171 12.3438 96.1967 11.8813L96.0147 13.5634ZM96.6732 5.66525C95.6417 6.04318 94.1702 6.40271 92.2586 6.74384L92.149 7.82243C92.1352 7.86994 92.1289 7.91934 92.1305 7.96881C92.1305 8.20037 92.2887 8.31614 92.6052 8.31614H93.791C94.9035 8.32595 96.0029 8.07556 97.0019 7.58488L96.7648 9.39474C95.9739 9.74827 94.9096 9.92504 93.5719 9.92504H91.8569C91.3465 9.92504 90.9725 9.81836 90.7348 9.605C90.4972 9.39163 90.3788 9.07779 90.3796 8.66348C90.378 8.55341 90.384 8.44337 90.3975 8.33413L90.9446 3.05033H92.6417L92.4226 5.18953C93.5416 4.97038 95.0193 4.57425 96.8558 4.00115L96.6732 5.66525Z" fill="black"/>
<path d="M30.0702 21.7083C30.6478 21.7141 31.0934 21.8518 31.407 22.1214C31.7206 22.391 31.8774 22.779 31.8774 23.2856C31.8791 23.3944 31.8735 23.5032 31.8607 23.6112L31.8112 24.0373C31.7332 24.6497 31.4999 25.1184 31.1112 25.4434C30.7225 25.7684 30.2035 25.9338 29.554 25.9396H27.8551L27.6076 27.9758H26.6223L27.3885 21.7083H30.0702ZM29.6871 25.0222C30.0312 25.0169 30.2951 24.9402 30.4787 24.7921C30.6623 24.6441 30.7766 24.4097 30.8215 24.0888L30.8884 23.5796C30.8949 23.5271 30.8978 23.4743 30.897 23.4214C30.897 23.1485 30.8228 22.9494 30.6761 22.8247C30.5294 22.7001 30.2998 22.6337 29.9891 22.6281H28.263L27.9634 25.0241L29.6871 25.0222Z" fill="black"/>
<path d="M39.4243 21.7083C39.7354 21.7083 39.9159 21.8586 39.9659 22.1592L40.9153 27.9764H39.873L39.5982 26.1653H36.9079L36.1831 27.9764H35.1093L37.5057 22.0941C37.6109 21.8386 37.8059 21.7102 38.0887 21.7102L39.4243 21.7083ZM38.3332 22.6263L37.2755 25.2474H39.4577L39.0579 22.6263H38.3332Z" fill="black"/>
<path d="M45.1951 22.6281L45.304 21.7083H50.2423L50.1315 22.6281H48.1262L47.485 27.9783H46.5022L47.144 22.6281H45.1951Z" fill="black"/>
<path d="M54.3647 21.7083H55.3469L55.0307 24.304H58.0454L58.3629 21.7083H59.3457L58.5789 27.9783H57.596L57.9296 25.2238H54.9143L54.5807 27.9783H53.5973L54.3647 21.7083Z" fill="black"/>
<path d="M63.9089 21.7083H64.8917L64.2338 27.0585H67.4819L67.3735 27.9764H63.1427L63.9089 21.7083Z" fill="black"/>
<path d="M73.7612 25.3057L71.855 21.7083H73.0309L74.2885 24.3208H74.4123L76.269 21.7083H77.4765L74.7366 25.3305L74.4197 27.9764H73.4369L73.7612 25.3057Z" fill="black"/>
<path d="M81.5317 21.7083H82.473L84.9883 26.3241L85.0297 26.3992L85.6047 21.7083H86.5454L85.7805 27.9783H84.8397L82.3146 23.383L82.2812 23.3073L81.7068 27.9814H80.7673L81.5317 21.7083Z" fill="black"/>
<path d="M91.0598 27.9783H89.8356L92.534 24.7648L90.7763 21.7083H91.9343L93.234 24.0286L95.074 21.7083H96.2654L93.7248 24.83L95.5902 27.9764H94.4142L93.0316 25.5643L91.0598 27.9783Z" fill="black"/>
<path d="M19.4014 12.798C18.6117 11.9551 17.1876 10.8269 17.0304 10.6526C17.0212 10.6447 17.0107 10.6387 16.9994 10.6346C17.0084 10.6345 17.0172 10.6364 17.0254 10.6402C16.9688 10.5092 16.9562 10.3634 16.9895 10.2246C17.3045 8.62564 17.3986 7.01923 16.9227 5.44134C16.703 4.7107 16.802 4.0669 17.0953 3.39456C17.5577 2.3414 17.8479 1.24047 18.033 0C17.9358 0.172426 17.8863 0.248095 17.8529 0.323144C16.5532 3.34184 14.4439 5.76697 11.7938 7.80569C11.3123 8.17783 10.8178 8.52765 10.3146 8.86754C9.39676 7.6711 8.27902 6.2278 7.39707 5.07416C7.62761 6.78065 7.59295 8.51263 7.29433 10.2085C7.26277 10.2296 7.23244 10.2488 7.1984 10.2705C6.37464 10.838 5.61153 11.498 4.8707 12.166C3.54933 13.3581 2.09428 14.3219 0.326065 14.8131C0.0617922 14.8857 -0.043422 15.0097 0.0159931 15.313C0.406523 17.3034 1.43329 18.9681 2.83511 20.4561C3.04059 20.6731 3.21512 20.7345 3.52396 20.6421C4.55382 20.332 6.34988 20.0455 7.41131 20.306C9.57377 20.8356 10.2218 23.512 10.2218 23.512C10.5603 23.0728 10.9304 22.6523 11.2306 22.1902C12.0259 20.9659 12.5359 19.6355 12.581 18.1897C12.6392 16.3116 11.7226 14.7852 9.82938 14.1253C9.7353 14.276 9.63256 14.4317 9.53849 14.5923C8.9004 15.6852 7.88477 16.0331 6.67233 15.568C6.1574 15.3701 5.64804 15.1592 5.11331 14.9446C5.13992 14.8981 5.15539 14.8206 5.19934 14.8007C6.52875 14.1588 7.86063 13.5268 9.39119 13.4319C10.5465 13.3599 11.5518 13.6831 12.4071 14.4013C14.085 15.8179 14.9304 17.5875 14.8289 19.7403C14.7051 22.3099 12.8168 27.8685 6.05467 26.9704C5.53973 26.9022 4.01722 26.5716 4.01722 26.5716C8.18432 29.3006 15.1495 27.9553 18.0132 23.992C18.0751 23.9071 18.137 23.8221 18.1933 23.7359C19.407 21.9545 19.7133 17.2798 19.7684 17.2234C20.3873 17.7196 20.7754 19.1182 20.7754 19.1182C20.8032 18.6741 21.1541 18.2207 21.3175 17.6879C21.8789 15.8489 20.7333 14.222 19.4014 12.798ZM16.5427 8.73542C16.491 8.9995 16.423 9.26009 16.339 9.51568C16.2978 9.63725 16.254 9.75385 16.2078 9.8655C16.1224 10.0736 16.0152 10.2719 15.8879 10.4572L14.5126 8.39615C14.2595 8.99903 13.5608 10.642 13.2748 10.7648C13.0223 10.3772 12.7797 10.0603 12.5501 9.59569C12.6838 9.38151 12.8208 9.17 12.961 8.96119C14.0132 7.39447 15.2269 5.94932 16.1794 4.35159C16.7413 5.36009 16.8447 7.22639 16.5445 8.73542H16.5427Z" fill="#F76B1C"/>
</g>
<defs>
<clipPath id="clip0_6_282">
<rect width="97" height="28" fill="white"/>
</clipPath>
</defs>
</svg>
