<svg width="95" height="52" viewBox="0 0 95 52" fill="none" xmlns="http://www.w3.org/2000/svg">
<g clip-path="url(#clip0_7_523)">
<path d="M4.78955 44.5828H87.188" stroke="#3F4DA1" stroke-width="1.2" stroke-linecap="round" stroke-linejoin="round"/>
<path d="M10.7416 8.62357C10.7416 8.62357 11.0903 44.395 46.1748 44.395C81.2592 44.395 81.1894 8.62357 81.1894 8.62357" stroke="#3F4DA1" stroke-width="1.2" stroke-linecap="round" stroke-linejoin="round"/>
<path d="M51.9408 38.574H40.0367V50.5917H51.9408V38.574Z" fill="white" stroke="#3F4DA1" stroke-width="1.2" stroke-linecap="round" stroke-linejoin="round"/>
<path d="M16.6936 0.408325H4.78955V12.426H16.6936V0.408325Z" fill="white" stroke="#3F4DA1" stroke-width="1.2" stroke-linecap="round" stroke-linejoin="round"/>
<path d="M87.188 0.408325H75.2839V12.426H87.188V0.408325Z" fill="white" stroke="#3F4DA1" stroke-width="1.2" stroke-linecap="round" stroke-linejoin="round"/>
<path d="M5.76604 48.9017C8.18009 48.9017 10.1371 46.926 10.1371 44.4889C10.1371 42.0518 8.18009 40.0762 5.76604 40.0762C3.35199 40.0762 1.39502 42.0518 1.39502 44.4889C1.39502 46.926 3.35199 48.9017 5.76604 48.9017Z" fill="#F76B1C" stroke="#3F4DA1" stroke-width="1.2" stroke-linecap="round" stroke-linejoin="round"/>
<path d="M89.2339 48.9017C91.648 48.9017 93.605 46.926 93.605 44.4889C93.605 42.0518 91.648 40.0762 89.2339 40.0762C86.8199 40.0762 84.8629 42.0518 84.8629 44.4889C84.8629 46.926 86.8199 48.9017 89.2339 48.9017Z" fill="#F76B1C" stroke="#3F4DA1" stroke-width="1.2" stroke-linecap="round" stroke-linejoin="round"/>
</g>
<defs>
<clipPath id="clip0_7_523">
<rect width="95" height="53" fill="white" transform="translate(0 -1)"/>
</clipPath>
</defs>
</svg>
